<?xml version="1.0" standalone="no"?>
<!DOCTYPE svg PUBLIC "-//W3C//DTD SVG 20010904//EN"
 "http://www.w3.org/TR/2001/REC-SVG-20010904/DTD/svg10.dtd">
<svg version="1.0" xmlns="http://www.w3.org/2000/svg"
 width="1280.000000pt" height="853.000000pt" viewBox="0 0 1280.000000 853.000000"
 preserveAspectRatio="xMidYMid meet">

<g transform="translate(0.000000,853.000000) scale(0.100000,-0.100000)"
fill="#000000" stroke="none">
<path d="M0 7740 c0 -772 0 -790 19 -781 31 17 61 78 61 127 0 24 -4 44 -9 44
-5 0 -14 13 -21 30 -11 25 -9 34 9 63 12 19 21 44 21 55 0 11 4 23 9 26 4 3
11 18 14 33 3 16 17 45 31 66 14 21 26 47 26 57 0 22 29 99 45 118 5 7 15 18
20 25 6 7 10 46 10 87 1 65 4 79 23 98 12 12 25 22 28 22 3 0 12 6 20 14 10
11 14 40 14 105 0 50 4 93 10 96 6 4 8 11 5 16 -4 5 3 9 15 9 12 0 18 4 15 10
-3 5 3 15 15 22 11 7 20 21 20 30 0 17 29 88 40 98 3 3 14 34 24 70 32 121 60
191 80 205 9 7 16 20 16 29 0 14 -27 16 -280 16 l-280 0 0 -790z"/>
<path d="M2200 8490 c-12 -35 -17 -40 -44 -40 -26 0 -34 -7 -48 -39 -36 -77
-16 -201 33 -201 13 0 19 -7 19 -24 0 -13 7 -26 15 -30 12 -4 15 -26 15 -108
0 -103 0 -104 -31 -131 -30 -26 -31 -28 -15 -52 9 -13 16 -30 16 -36 0 -13
-55 -161 -71 -191 -13 -25 -11 -62 3 -76 6 -6 13 -33 14 -59 1 -27 5 -58 9
-70 6 -19 4 -23 -14 -23 -12 0 -21 -6 -21 -15 0 -12 16 -15 84 -15 88 0 115
-12 102 -46 -4 -9 -1 -32 6 -50 12 -33 13 -34 70 -34 49 0 58 3 58 18 0 10 9
25 20 35 11 9 20 24 20 32 0 8 9 20 20 27 15 10 20 24 20 54 0 28 5 44 15 48
8 3 15 13 15 23 0 29 17 50 30 37 14 -14 100 15 100 34 0 7 4 11 9 8 5 -4 16
-3 25 0 24 9 20 68 -9 114 -14 22 -25 44 -25 50 0 15 61 110 71 110 5 0 9 7 9
15 0 9 7 18 15 21 20 8 65 106 65 143 0 23 5 31 18 31 14 0 15 2 2 10 -12 7
-8 12 18 21 24 8 30 14 21 20 -11 6 -10 9 4 15 13 5 17 18 17 58 1 28 7 62 15
76 8 14 14 44 15 68 0 23 7 59 15 78 8 20 12 46 9 58 -3 14 1 27 10 35 9 8 16
20 16 27 0 12 -63 14 -373 14 l-374 0 -13 -40z"/>
<path d="M4954 8514 c3 -9 7 -62 7 -117 0 -81 5 -113 25 -165 17 -45 24 -85
24 -132 0 -63 -2 -71 -31 -99 -17 -17 -37 -31 -45 -31 -20 0 -17 -18 6 -32 12
-8 20 -24 20 -39 0 -15 7 -32 15 -39 22 -18 45 -70 45 -102 0 -15 5 -28 10
-28 13 0 13 -97 1 -105 -5 -3 -13 -20 -16 -38 -4 -17 -15 -49 -25 -69 -12 -26
-14 -39 -6 -42 7 -3 6 -9 -4 -18 -9 -8 -16 -34 -17 -64 -3 -61 -28 -124 -57
-145 -4 -4 -2 -23 5 -42 16 -44 46 -58 132 -63 34 -1 64 -3 66 -3 2 -1 -2 -7
-8 -14 -9 -11 -3 -16 28 -27 44 -14 85 -6 77 17 -3 8 -6 22 -6 31 0 9 -7 25
-15 36 -13 17 -15 17 -30 2 -22 -21 -95 -22 -95 -1 0 9 -10 15 -26 15 -43 0
-22 24 27 31 43 5 43 5 17 16 -39 17 -44 33 -9 33 35 0 61 9 61 21 0 5 -3 8
-7 7 -5 -1 -34 6 -67 16 -62 18 -64 29 -7 46 29 8 33 6 41 -16 5 -13 18 -27
27 -31 10 -4 21 -11 25 -17 4 -6 12 -5 23 4 15 13 15 15 -7 24 l-23 9 22 4
c12 3 31 -1 42 -6 16 -9 23 -6 40 18 12 16 21 33 21 38 0 6 9 18 20 28 11 10
20 13 20 7 0 -7 5 -12 11 -12 6 0 8 9 4 20 -4 13 -1 22 9 26 9 3 16 15 16 25
0 11 5 16 13 13 8 -3 36 6 63 20 27 14 42 26 32 26 -11 0 -15 6 -11 20 4 15
14 20 42 20 29 0 80 17 61 21 -56 10 -70 16 -70 29 0 5 19 10 42 10 53 0 93
32 77 62 -13 24 -2 41 22 35 11 -3 19 -1 19 4 0 5 -6 9 -12 9 -9 0 -8 4 2 11
12 8 12 12 2 16 -8 3 -10 9 -4 16 18 24 30 105 31 211 1 75 6 118 16 139 8 17
15 36 15 44 0 7 7 13 15 13 11 0 15 11 15 40 0 29 -4 40 -15 40 -8 0 -15 5
-15 10 0 6 -5 10 -11 10 -18 0 -38 32 -39 62 0 15 -7 33 -15 42 -36 36 -9 43
157 42 78 -1 109 2 113 11 6 18 35 16 35 -2 0 -8 7 -15 15 -15 29 0 100 -48
97 -65 -3 -16 19 -57 44 -82 7 -7 30 -13 52 -13 34 0 39 -3 35 -19 -3 -12 2
-20 16 -24 12 -3 21 -12 21 -21 0 -13 -12 -16 -60 -16 -57 0 -60 1 -60 25 0
25 -1 25 -77 23 -72 -3 -78 -5 -81 -25 -2 -14 -10 -23 -21 -23 -9 0 -17 -8
-18 -17 -8 -89 -8 -87 -40 -96 -42 -12 -48 -33 -21 -67 30 -37 87 -42 193 -18
85 20 117 15 161 -24 22 -20 64 -25 64 -7 0 14 55 69 69 69 6 0 11 6 11 13 0
34 33 46 118 43 45 -2 85 1 88 5 3 5 -1 9 -8 9 -7 0 -2 7 11 16 22 16 26 15
62 -4 32 -17 44 -19 69 -11 16 6 37 9 47 6 12 -3 8 -5 -9 -6 -25 -1 -28 -5
-28 -34 0 -57 41 -87 79 -60 21 14 40 21 69 22 12 1 16 49 6 87 -9 35 -104 76
-104 44 0 -13 -61 -13 -95 0 -14 5 -23 14 -20 20 10 16 -94 12 -111 -4 -8 -8
-14 -17 -14 -20 0 -3 -8 -15 -17 -26 -14 -16 -30 -20 -80 -20 -71 0 -78 10
-43 60 17 24 18 32 8 61 -6 19 -16 40 -21 47 -8 10 -7 16 0 20 14 9 12 43 -3
58 -5 6 -26 15 -45 19 -45 10 -69 23 -69 39 0 7 -14 31 -32 54 l-32 42 -252 0
c-211 0 -254 -2 -264 -15 -9 -10 -9 -15 -1 -15 6 0 11 -4 11 -10 0 -21 -41 -9
-52 15 l-11 25 -315 0 c-285 0 -314 -1 -308 -16z m496 -850 c0 -8 -4 -14 -10
-14 -5 0 -10 9 -10 21 0 11 5 17 10 14 6 -3 10 -13 10 -21z m-40 -64 c11 -7 4
-10 -27 -10 -23 0 -45 5 -48 10 -8 13 55 13 75 0z m-373 -167 c4 -10 11 -21
17 -25 23 -15 -4 -18 -33 -4 -20 11 -28 21 -25 31 8 20 33 19 41 -2z m130 -39
c-3 -3 -12 -4 -19 -1 -8 3 -5 6 6 6 11 1 17 -2 13 -5z"/>
<path d="M7081 8499 c-8 -18 -26 -36 -41 -42 -16 -6 -35 -25 -44 -44 -15 -31
-15 -36 0 -58 9 -14 20 -25 25 -25 5 0 23 -15 42 -34 18 -18 57 -41 85 -50 29
-10 54 -22 57 -27 4 -5 22 -9 41 -9 20 0 34 -5 34 -12 0 -7 19 -24 41 -37 23
-13 37 -26 31 -30 -5 -3 -13 -23 -17 -44 -4 -20 -11 -37 -16 -37 -5 0 -9 -6
-9 -14 0 -8 -7 -16 -15 -20 -8 -3 -15 -15 -15 -26 0 -11 -4 -20 -8 -20 -5 0
-14 -18 -21 -40 -10 -33 -18 -42 -42 -47 -21 -4 -26 -8 -18 -14 7 -4 19 -3 26
3 12 10 17 4 14 -14 0 -5 3 -8 9 -8 18 0 11 -29 -10 -40 -11 -6 -24 -19 -30
-30 -9 -17 -7 -22 13 -29 31 -12 38 -40 21 -81 -17 -38 -18 -100 -3 -100 6 0
3 -7 -5 -16 -9 -8 -16 -18 -16 -22 0 -3 16 9 35 28 29 28 35 31 35 15 0 -18 0
-18 14 1 10 13 11 23 4 31 -7 9 -7 13 0 13 5 0 15 -7 22 -15 10 -12 10 -19 -2
-33 -15 -19 -38 -67 -38 -83 0 -5 8 -4 19 2 12 8 16 19 13 33 -5 19 -4 19 11
7 15 -12 15 -15 -6 -41 -13 -16 -28 -25 -37 -22 -12 5 -13 3 -3 -9 6 -8 10
-26 9 -40 -2 -16 2 -26 11 -26 7 0 13 10 13 22 0 11 11 36 25 55 14 19 25 41
26 49 1 9 5 5 9 -9 4 -14 8 -20 9 -13 1 7 7 10 14 8 6 -3 22 10 34 29 17 26
36 39 84 55 75 25 79 25 79 6 0 -8 -4 -15 -10 -15 -5 0 -9 -6 -7 -12 1 -9 -10
-12 -40 -10 -32 3 -47 -2 -64 -19 -20 -20 -20 -22 -3 -17 10 3 25 7 33 9 7 2
15 -1 18 -8 2 -6 -14 -19 -36 -29 -35 -15 -38 -19 -23 -30 13 -9 23 -8 51 7
19 10 38 23 42 30 3 6 13 9 20 7 9 -4 3 -12 -18 -24 -18 -11 -33 -26 -33 -34
0 -9 -5 -21 -12 -28 -9 -9 -9 -12 0 -12 17 0 62 49 62 66 0 8 7 14 15 14 20 0
20 -2 -14 -44 -35 -43 -33 -76 3 -53 12 8 38 31 58 51 42 42 63 47 52 14 -6
-22 -6 -22 12 -7 19 17 98 59 109 59 4 0 5 -8 4 -17 -1 -10 1 -31 6 -46 7 -25
11 -28 34 -22 39 11 46 11 49 0 1 -5 -10 -14 -25 -19 -16 -5 -32 -15 -38 -21
-5 -7 -21 -19 -35 -29 -27 -18 -11 -22 21 -6 14 8 19 7 19 -1 0 -8 13 -10 41
-5 24 4 38 3 35 -3 -11 -17 27 -22 50 -6 32 21 41 19 20 -4 -16 -18 -16 -19 8
-25 13 -3 31 -8 39 -12 9 -3 17 3 21 18 7 22 7 22 15 3 5 -11 6 -24 4 -28 -3
-5 3 -8 13 -6 11 1 39 -2 63 -6 l44 -8 -22 -19 -23 -18 22 0 c18 0 20 -3 11
-14 -10 -11 -8 -16 9 -21 l21 -7 -22 -19 c-12 -10 -19 -19 -14 -19 4 0 3 -6
-3 -12 -7 -9 -6 -17 3 -25 7 -6 15 -10 17 -7 10 9 304 -47 327 -63 41 -27 3
-36 -76 -19 -37 8 -106 22 -153 31 -47 9 -95 19 -106 21 -16 4 -23 0 -27 -15
-4 -18 -1 -21 28 -21 24 0 34 -5 38 -19 3 -13 19 -22 53 -29 76 -17 127 -41
120 -58 -10 -25 6 -20 112 35 40 21 62 21 62 0 0 -5 -33 -24 -74 -43 -48 -22
-77 -42 -81 -55 -3 -12 -12 -21 -19 -21 -16 0 -70 -42 -73 -56 -1 -8 6 -10 19
-6 16 4 19 2 12 -9 -5 -9 1 -8 20 4 34 23 54 16 67 -23 12 -34 29 -37 82 -15
45 19 52 19 70 0 14 -13 19 -13 51 0 41 17 70 20 61 5 -3 -5 -1 -10 5 -10 23
0 -11 -39 -40 -45 -16 -4 -33 -12 -37 -19 -5 -8 -23 -21 -40 -30 -37 -18 -40
-28 -18 -46 8 -7 15 -19 15 -26 0 -8 5 -23 12 -33 6 -10 8 -26 3 -37 -6 -17
-8 -16 -17 9 -5 15 -14 27 -19 27 -5 0 -9 13 -9 30 0 37 -30 56 -61 40 -19
-11 -20 -12 -3 -24 16 -12 14 -14 -14 -18 -19 -3 -29 -1 -25 6 4 6 -1 6 -13 1
-10 -4 -29 -10 -41 -12 -29 -7 -29 -11 3 -38 21 -18 23 -23 10 -28 -22 -9 -20
-27 3 -27 11 0 23 -4 26 -10 3 -5 0 -10 -7 -10 -9 0 -8 -4 2 -14 12 -12 24
-13 60 -5 25 6 59 13 75 16 17 3 38 12 48 21 24 21 22 7 -3 -18 -40 -40 -18
-51 88 -41 62 6 72 5 72 -9 0 -20 -41 -60 -60 -60 -7 0 -33 -11 -57 -26 -39
-22 -42 -27 -28 -40 8 -9 27 -17 41 -19 25 -2 47 -22 39 -35 -2 -4 13 -12 33
-19 52 -18 82 -39 82 -56 0 -16 -1 -16 -67 19 -37 19 -66 21 -60 4 2 -7 10
-12 16 -10 7 1 22 -4 34 -13 12 -8 18 -15 13 -15 -5 0 -1 -9 9 -20 9 -10 15
-26 12 -34 -4 -10 -1 -13 7 -10 8 3 17 1 21 -5 10 -17 58 -13 184 15 l116 26
75 -18 c84 -19 265 -23 283 -5 13 13 61 15 53 2 -4 -5 -32 -17 -64 -26 -100
-29 -99 -29 -94 -69 2 -20 9 -36 15 -36 5 0 30 16 54 36 24 20 45 35 46 33 2
-2 9 -12 16 -22 12 -15 12 -17 -1 -12 -20 8 -60 -38 -52 -59 4 -9 18 -23 33
-31 31 -17 97 -75 86 -75 -5 0 23 -22 63 -49 69 -48 121 -91 110 -91 -3 0 -23
14 -44 31 -66 52 -80 55 -43 8 19 -24 46 -54 62 -67 15 -13 25 -27 22 -32 -2
-4 4 -15 14 -24 17 -15 38 -16 242 -6 252 13 455 10 452 -5 -2 -6 -51 -11
-115 -12 -161 -3 -557 -23 -573 -29 -18 -7 -9 -34 28 -77 28 -33 43 -40 127
-61 127 -32 236 -71 223 -79 -6 -4 -43 5 -82 18 -77 27 -201 58 -207 52 -2 -2
10 -20 27 -41 30 -35 32 -36 50 -20 21 19 40 11 21 -8 -17 -17 -15 -28 6 -28
14 0 15 -2 2 -10 -12 -7 -8 -11 18 -16 38 -8 53 -24 21 -24 l-22 0 19 -22 c11
-13 26 -32 34 -42 14 -18 13 -19 -12 -14 -24 4 -27 2 -26 -19 2 -20 12 -27 70
-44 37 -12 68 -25 68 -30 0 -12 -2 -12 -72 7 -33 8 -63 12 -67 9 -8 -9 39 -46
50 -39 5 3 9 1 9 -3 0 -5 13 -16 28 -25 46 -27 226 -163 242 -183 14 -17 14
-18 -10 -5 -14 7 -53 35 -87 61 -80 63 -204 142 -210 135 -11 -10 20 -37 89
-78 69 -41 85 -55 74 -65 -3 -3 -35 13 -71 36 -36 23 -65 37 -65 31 0 -5 4
-10 8 -10 15 0 116 -108 124 -132 7 -20 6 -20 -13 5 -27 35 -150 140 -157 133
-2 -3 3 -17 12 -30 18 -28 22 -96 5 -96 -6 0 -13 9 -16 19 -3 11 -12 22 -20
25 -9 4 -13 2 -9 -6 3 -7 9 -21 12 -30 4 -10 10 -18 15 -18 5 0 6 -7 3 -15 -4
-8 1 -17 10 -21 24 -9 19 -24 -6 -24 -21 0 -20 -2 10 -26 17 -14 32 -30 32
-36 0 -6 -9 -3 -20 7 -19 18 -20 17 -16 -28 2 -26 0 -44 -4 -42 -4 3 -14 -2
-21 -11 -11 -13 -8 -20 22 -48 19 -18 49 -50 68 -72 19 -21 52 -58 74 -81 23
-24 37 -46 33 -50 -4 -4 -46 34 -94 85 -77 82 -132 120 -132 91 0 -5 6 -9 14
-9 8 0 18 -4 21 -10 4 -6 -1 -7 -10 -3 -15 5 -15 3 -3 -18 7 -13 20 -33 30
-44 19 -24 118 -215 118 -230 0 -5 -30 43 -68 107 -63 109 -82 137 -148 213
-25 29 -25 29 -19 5 4 -14 8 -36 9 -50 0 -14 7 -31 14 -38 6 -7 12 -18 12 -23
0 -12 -33 -12 -46 1 -13 13 -86 16 -107 3 -17 -9 -16 -11 1 -31 11 -12 26 -22
33 -22 8 0 26 -23 41 -52 28 -52 30 -77 3 -42 -8 10 -15 14 -15 8 0 -17 27
-37 40 -29 5 3 10 1 10 -5 0 -6 5 -8 10 -5 6 3 10 0 10 -9 0 -27 -11 -45 -25
-40 -17 7 -18 -53 -2 -63 6 -4 2 -10 -9 -14 -18 -7 -18 -8 0 -8 12 -1 16 -6
12 -16 -3 -8 -2 -15 2 -15 13 0 92 -77 85 -83 -3 -3 3 -6 13 -6 11 1 33 -4 49
-9 l30 -10 -30 -1 c-22 -1 -26 -4 -16 -10 8 -5 21 -7 29 -3 11 4 13 1 7 -7 -6
-10 -3 -11 15 -1 12 7 20 7 16 2 -3 -6 9 -20 27 -31 38 -23 75 -61 60 -61 -5
0 -18 7 -29 15 -10 8 -27 15 -37 15 -12 0 -16 5 -11 13 5 9 4 9 -6 0 -10 -9
-7 -18 19 -43 40 -40 41 -53 1 -15 -16 16 -30 27 -31 24 0 -2 -2 -13 -4 -24
-2 -12 7 -31 22 -47 15 -16 22 -28 16 -28 -5 0 -18 9 -28 20 -25 27 -31 18
-10 -14 10 -14 13 -26 7 -26 -6 0 -17 12 -24 27 -7 15 -22 29 -33 32 -28 5
-46 33 -33 49 8 10 7 11 -8 5 -16 -6 -17 -4 -7 8 10 12 9 15 -6 15 -10 0 -17
-7 -16 -16 3 -28 16 -60 26 -60 17 0 9 -18 -11 -23 -13 -3 -20 -14 -20 -29 -1
-21 -2 -21 -11 -5 -8 14 -18 17 -37 13 -26 -5 -26 -5 -4 6 12 6 22 14 22 18 0
17 -29 74 -31 60 0 -8 -5 3 -10 25 -5 21 -19 50 -31 63 -21 21 -23 22 -30 5
-6 -12 -7 -10 -3 9 5 27 -15 53 -23 30 -2 -7 -9 -9 -14 -5 -8 4 -9 -2 -4 -18
22 -72 28 -99 37 -152 5 -32 13 -67 19 -77 5 -10 10 -26 10 -35 0 -24 -20 -7
-21 18 -1 15 -3 17 -6 6 -2 -9 7 -34 21 -54 15 -21 26 -43 25 -49 0 -7 -3 -6
-6 2 -2 6 -9 12 -15 12 -6 0 -17 8 -25 18 -13 15 -14 13 -11 -20 5 -48 -22
-58 -53 -20 l-22 27 7 -29 c6 -26 5 -28 -8 -17 -19 16 -20 9 -2 -49 22 -75 28
-107 16 -90 -7 11 -10 6 -10 -24 0 -64 -11 -34 -12 34 -1 38 -6 67 -15 75 -8
8 -20 31 -28 52 l-14 38 -1 -30 c-1 -25 -3 -27 -9 -10 -8 19 -8 19 -19 -2 -7
-12 -12 -48 -12 -80 0 -32 -5 -65 -10 -73 -7 -11 -10 -5 -10 25 -1 38 -1 39
-16 20 -13 -17 -16 -18 -24 -5 -5 8 -10 18 -10 21 0 3 -11 11 -25 17 -21 10
-25 9 -25 -6 0 -31 -21 -92 -31 -92 -5 0 -9 6 -8 13 3 25 -1 38 -11 32 -6 -4
-18 -1 -27 7 -15 11 -16 10 -11 -9 5 -18 2 -23 -14 -23 -14 0 -18 -5 -14 -15
3 -9 -3 -19 -16 -26 -17 -9 -18 -13 -7 -20 11 -7 9 -9 -8 -9 -12 0 -24 6 -27
13 -5 9 -7 9 -12 0 -3 -7 -12 -13 -21 -13 -18 0 -52 -39 -53 -61 0 -9 -16 -21
-39 -29 -22 -7 -49 -23 -60 -36 -23 -27 -66 -32 -75 -9 -8 21 -24 19 -31 -6
-4 -13 0 -27 11 -40 9 -10 13 -20 8 -20 -5 -1 -13 -2 -19 -4 -5 -1 -14 -3 -19
-3 -5 -1 -1 -11 9 -22 17 -19 17 -20 -9 -31 -26 -12 -35 -29 -16 -29 6 0 10
-11 10 -24 0 -13 9 -35 20 -49 11 -14 20 -35 20 -46 0 -13 6 -21 16 -21 9 0
18 -9 21 -20 3 -10 14 -22 24 -25 22 -7 34 -60 26 -111 -5 -31 -4 -33 14 -24
10 6 31 29 46 51 32 49 96 94 141 101 42 6 42 -8 -3 -99 -19 -39 -35 -76 -35
-82 0 -5 11 -27 25 -47 14 -21 25 -51 25 -70 0 -43 19 -84 39 -84 9 0 34 -14
55 -32 35 -29 41 -30 70 -20 91 33 129 0 126 -106 -4 -92 -5 -89 47 -112 74
-33 83 -45 83 -111 0 -54 2 -59 25 -65 14 -3 34 -4 44 -1 31 8 40 -29 24 -103
-8 -36 -15 -89 -16 -119 -2 -48 1 -58 30 -90 18 -20 42 -55 53 -78 11 -24 24
-43 30 -43 5 0 17 -12 27 -26 16 -26 16 -27 -6 -45 -13 -11 -34 -19 -48 -19
-47 0 -22 -33 41 -55 80 -29 92 -53 46 -100 -37 -38 -37 -34 7 -119 11 -20 14
-43 10 -78 -5 -39 -2 -59 13 -89 25 -48 25 -51 -1 -80 -11 -13 -18 -32 -15
-42 6 -23 -8 -63 -29 -83 -23 -24 -29 -64 -15 -98 8 -17 15 -51 16 -76 2 -25
3 -50 3 -56 1 -6 12 -28 26 -48 32 -47 73 -151 77 -196 3 -32 1 -35 -27 -38
-16 -2 -42 -8 -57 -14 -29 -11 -85 4 -100 26 -7 11 -76 -54 -93 -89 -6 -11
-58 -44 -118 -74 -69 -35 -107 -60 -107 -70 0 -9 -12 -32 -28 -51 -15 -19 -33
-47 -41 -61 -18 -36 -70 -48 -141 -32 -30 7 -100 19 -154 28 -98 15 -171 45
-213 85 -31 30 -63 70 -63 79 0 5 -7 12 -16 15 -14 5 -16 16 -10 69 7 71 -1
100 -53 192 -40 71 -73 100 -123 108 l-38 6 20 -22 c26 -27 26 -64 0 -72 -17
-6 -98 30 -125 56 -14 14 -25 11 -25 -6 0 -9 11 -20 24 -24 13 -5 26 -19 29
-30 3 -12 1 -18 -4 -15 -5 3 -17 -2 -26 -12 -17 -16 -18 -16 -23 7 -5 18 -13
24 -34 24 -24 0 -33 -8 -54 -47 -26 -48 -25 -71 2 -49 8 7 28 16 44 20 26 8
31 6 36 -12 10 -37 7 -46 -28 -85 -19 -20 -36 -51 -38 -67 -2 -24 -8 -31 -30
-33 -17 -2 -34 4 -47 17 -20 20 -20 21 -2 65 20 46 14 66 -20 66 -25 0 -32
-16 -17 -40 12 -19 8 -26 -49 -78 -46 -43 -61 -63 -57 -77 4 -15 -3 -25 -26
-38 -49 -29 -76 -119 -50 -168 10 -18 23 -19 169 -19 132 0 160 3 165 15 7 19
40 19 56 0 10 -12 44 -15 190 -15 l177 0 12 26 c13 30 37 27 34 -5 l-3 -21
1890 0 1890 0 0 4265 0 4265 -2120 0 c-1407 0 -2120 -3 -2120 -10 0 -5 -18
-10 -40 -10 -22 0 -40 5 -40 10 0 7 -202 10 -585 10 -322 0 -585 -2 -585 -4 0
-3 5 -17 10 -31 25 -65 -22 -108 -85 -78 -34 16 -46 33 -24 33 6 0 -3 12 -20
26 -17 14 -31 32 -31 40 0 9 -11 14 -33 14 -26 0 -35 -5 -46 -31z m1764 -839
c3 -5 -1 -10 -10 -10 -9 0 -13 5 -10 10 3 6 8 10 10 10 2 0 7 -4 10 -10z
m-1492 -30 c-3 -11 -12 -20 -19 -20 -20 0 -17 28 4 33 9 3 18 5 19 6 0 0 -1
-8 -4 -19z m486 -15 c-8 -9 -18 -20 -24 -25 -102 -95 -157 -129 -80 -50 l39
40 -66 0 c-66 0 -94 13 -67 32 8 5 49 7 91 4 71 -5 79 -4 89 15 7 15 14 18 21
11 7 -7 6 -16 -3 -27z m-209 -104 c0 -6 -4 -13 -10 -16 -5 -3 -10 1 -10 9 0 9
5 16 10 16 6 0 10 -4 10 -9z m1086 -686 c-7 -38 -26 -48 -26 -14 0 24 19 63
27 55 3 -3 2 -21 -1 -41z m-167 28 c0 -5 -16 -21 -35 -37 -27 -22 -40 -27 -61
-21 l-27 6 30 24 c18 15 36 22 48 18 12 -3 16 -1 12 6 -4 7 1 11 13 11 12 0
21 -3 20 -7z m-129 -22 c0 -17 -18 -21 -24 -6 -3 9 0 15 9 15 8 0 15 -4 15 -9z
m150 -36 c11 -13 7 -15 -23 -15 -41 0 -59 16 -25 23 13 2 26 5 29 6 4 0 12 -6
19 -14z m3306 -137 c40 -46 48 -73 29 -101 -9 -14 -32 -33 -51 -42 -34 -16
-35 -16 -54 7 -11 13 -19 31 -20 40 0 9 -4 19 -10 23 -19 12 18 70 55 86 29
11 30 11 51 -13z m-3366 -158 c0 -5 -9 -10 -20 -10 -11 0 -20 5 -20 10 0 6 9
10 20 10 11 0 20 -4 20 -10z m610 -269 c0 -20 -28 -56 -37 -47 -3 2 -2 18 2
35 7 34 35 43 35 12z m155 -110 c-11 -10 -85 -32 -85 -26 0 3 12 11 28 19 30
17 72 22 57 7z m885 -1530 c0 -11 -59 -36 -67 -27 -3 3 9 12 28 20 41 18 39
18 39 7z m-214 -429 c-7 -7 -66 9 -66 18 0 4 16 3 35 -3 19 -6 33 -12 31 -15z
m-116 -233 c0 -6 -4 -7 -10 -4 -5 3 -10 11 -10 16 0 6 5 7 10 4 6 -3 10 -11
10 -16z m270 -84 c14 -19 14 -19 -2 -6 -10 7 -18 18 -18 24 0 6 1 8 3 6 1 -2
9 -13 17 -24z m-260 -50 c7 -9 8 -15 2 -15 -5 0 -12 7 -16 15 -3 8 -4 15 -2
15 2 0 9 -7 16 -15z m37 -147 c-3 -8 -6 -5 -6 6 -1 11 2 17 5 13 3 -3 4 -12 1
-19z m-475 -260 c-9 -9 -15 -9 -24 0 -9 9 -7 12 12 12 19 0 21 -3 12 -12z
m-601 -3170 c8 -14 4 -31 -15 -71 -28 -59 -41 -76 -76 -100 -31 -22 -50 -22
-50 1 0 21 42 106 64 127 9 9 16 27 16 40 0 39 41 41 61 3z m-479 -50 c-7 -7
-12 -8 -12 -2 0 14 12 26 19 19 2 -3 -1 -11 -7 -17z m159 -48 c23 -13 25 -43
3 -61 -29 -24 -79 26 -55 55 16 19 25 20 52 6z"/>
<path d="M6493 8493 c-7 -2 -13 -11 -13 -19 0 -7 -11 -16 -24 -20 -22 -5 -23
-8 -14 -44 l10 -39 92 1 c143 0 134 3 152 -42 13 -33 19 -38 30 -29 10 8 14 8
14 0 0 -6 9 -11 20 -11 11 0 20 4 20 9 0 5 23 20 50 32 46 21 50 25 50 58 0
25 -6 40 -20 49 -11 7 -20 19 -20 27 0 21 -46 37 -86 29 -24 -4 -34 -12 -34
-25 0 -11 -7 -19 -18 -19 -9 0 -23 -9 -30 -20 -14 -23 -32 -26 -32 -6 0 7 -9
16 -21 19 -12 3 -18 10 -15 16 4 6 -5 13 -19 17 -14 3 -25 10 -25 15 0 9 -46
11 -67 2z"/>
<path d="M2066 8311 c-4 -7 -5 -15 -2 -18 9 -9 19 4 14 18 -4 11 -6 11 -12 0z"/>
<path d="M6540 8071 c0 -6 5 -13 10 -16 6 -3 10 1 10 9 0 9 -4 16 -10 16 -5 0
-10 -4 -10 -9z"/>
<path d="M6765 7970 c3 -5 14 -10 23 -10 15 0 15 2 2 10 -20 13 -33 13 -25 0z"/>
<path d="M7000 7939 c0 -5 5 -7 10 -4 6 3 10 8 10 11 0 2 -4 4 -10 4 -5 0 -10
-5 -10 -11z"/>
<path d="M6675 7920 c-3 -5 -1 -10 4 -10 6 0 11 5 11 10 0 6 -2 10 -4 10 -3 0
-8 -4 -11 -10z"/>
<path d="M6974 7845 c-10 -8 -14 -15 -8 -15 6 0 17 7 24 15 16 19 9 19 -16 0z"/>
<path d="M7120 7771 c0 -5 3 -11 8 -14 4 -2 2 -3 -3 -1 -6 1 -19 -4 -29 -11
-25 -19 -3 -28 31 -13 38 16 37 16 23 33 -14 17 -30 20 -30 6z"/>
<path d="M7785 7450 c-3 -5 -1 -10 4 -10 6 0 11 5 11 10 0 6 -2 10 -4 10 -3 0
-8 -4 -11 -10z"/>
<path d="M7424 7432 c3 -6 0 -13 -6 -16 -7 -2 -2 -3 12 -2 28 3 30 19 4 24 -9
2 -14 -1 -10 -6z"/>
<path d="M7675 7380 c-3 -5 -2 -10 4 -10 5 0 13 5 16 10 3 6 2 10 -4 10 -5 0
-13 -4 -16 -10z"/>
<path d="M7279 7370 c-1 -8 -1 -18 0 -23 1 -4 2 -25 3 -47 1 -30 4 -37 13 -30
15 12 12 87 -4 103 -8 8 -11 7 -12 -3z"/>
<path d="M7436 7371 c-4 -5 0 -12 6 -15 7 -3 3 -3 -9 0 -16 4 -23 1 -23 -9 0
-13 8 -14 55 -8 6 0 16 10 23 21 11 18 10 20 -17 20 -17 0 -32 -4 -35 -9z"/>
<path d="M5416 7325 c-15 -19 -22 -23 -32 -14 -8 6 -14 8 -14 3 0 -12 -51 -35
-61 -28 -16 9 -52 -34 -46 -55 3 -12 1 -24 -4 -27 -11 -6 -2 -68 13 -98 7 -13
7 -16 -1 -12 -7 4 -11 -1 -11 -14 0 -18 -2 -19 -22 -8 -49 26 -75 10 -39 -23
12 -11 21 -24 21 -29 0 -6 5 -10 11 -10 6 0 8 9 4 20 -4 11 -2 20 4 20 6 0 11
-4 11 -9 0 -5 10 -13 23 -17 41 -14 48 -13 42 6 -7 24 30 48 38 26 3 -8 -2
-17 -11 -21 -14 -5 -14 -7 -2 -15 22 -14 40 -12 40 5 0 8 3 15 8 15 13 -1 42
-27 42 -39 0 -14 18 -10 41 8 14 11 16 19 7 34 -5 11 -8 30 -5 44 3 17 -2 28
-18 39 -13 8 -25 24 -28 34 -4 16 0 20 20 20 32 0 57 25 47 48 -12 27 -14 65
-4 77 6 7 2 17 -10 28 -27 23 -42 21 -64 -8z m44 -39 c0 -20 -13 -27 -30 -15
-13 8 -13 10 0 19 21 14 30 12 30 -4z m-144 -103 c-7 -7 -26 7 -26 19 0 6 6 6
15 -2 9 -7 13 -15 11 -17z m154 -143 c0 -5 -4 -10 -10 -10 -5 0 -10 5 -10 10
0 6 5 10 10 10 6 0 10 -4 10 -10z"/>
<path d="M6515 7240 c-10 -11 -14 -20 -9 -20 5 0 15 9 22 20 7 11 11 20 9 20
-2 0 -12 -9 -22 -20z"/>
<path d="M7271 7234 c0 -11 3 -14 6 -6 3 7 2 16 -1 19 -3 4 -6 -2 -5 -13z"/>
<path d="M5510 7190 c0 -5 5 -10 10 -10 6 0 10 5 10 10 0 6 -4 10 -10 10 -5 0
-10 -4 -10 -10z"/>
<path d="M6487 7170 c-3 -13 0 -20 9 -20 15 0 19 26 5 34 -5 3 -11 -3 -14 -14z"/>
<path d="M5452 7148 c2 -6 10 -14 16 -16 7 -2 10 2 6 12 -7 18 -28 22 -22 4z"/>
<path d="M6418 7123 c7 -3 16 -2 19 1 4 3 -2 6 -13 5 -11 0 -14 -3 -6 -6z"/>
<path d="M5515 7110 c3 -5 8 -10 11 -10 2 0 4 5 4 10 0 6 -5 10 -11 10 -5 0
-7 -4 -4 -10z"/>
<path d="M5490 7086 c0 -9 5 -16 10 -16 6 0 10 4 10 9 0 6 -4 13 -10 16 -5 3
-10 -1 -10 -9z"/>
<path d="M4870 7082 c0 -5 14 -7 30 -4 17 2 30 6 30 8 0 2 -13 4 -30 4 -16 0
-30 -4 -30 -8z"/>
<path d="M2400 7065 c0 -11 -11 -15 -40 -15 -33 0 -40 -3 -40 -20 0 -11 -7
-20 -15 -20 -19 0 -65 -47 -65 -66 0 -15 -48 -86 -62 -92 -5 -2 -9 -25 -9 -50
-1 -41 -2 -43 -8 -17 -7 29 -7 29 -15 8 -12 -36 -43 -29 -57 12 -12 32 -17 35
-51 35 -32 0 -38 -3 -38 -21 0 -18 -2 -20 -16 -8 -13 10 -17 10 -25 -2 -12
-19 -11 -37 2 -41 16 -5 -10 -78 -28 -78 -20 0 -17 -67 5 -80 16 -10 15 -12
-8 -28 -13 -9 -31 -25 -39 -34 -9 -10 -21 -18 -28 -18 -8 0 -13 -14 -13 -40 0
-29 4 -40 15 -40 22 0 18 -16 -7 -34 -18 -13 -21 -24 -19 -68 1 -47 6 -57 43
-95 38 -38 40 -43 20 -43 -19 0 -22 -5 -22 -40 0 -33 3 -40 20 -40 13 0 20 -7
20 -20 0 -17 -7 -20 -40 -20 -31 0 -40 4 -40 18 -1 27 -28 -26 -35 -71 -4 -21
-16 -43 -28 -52 -16 -11 -18 -15 -5 -15 27 0 30 -96 5 -145 -11 -22 -25 -49
-30 -60 -5 -10 -20 -39 -33 -64 -24 -45 -33 -131 -14 -131 15 0 12 -16 -5 -34
-8 -8 -15 -30 -15 -50 0 -19 -4 -37 -9 -40 -5 -3 -12 -20 -15 -38 -9 -46 -27
-207 -27 -241 0 -15 -6 -30 -14 -34 -10 -3 -15 -20 -15 -47 -1 -42 -18 -76
-39 -76 -6 0 -11 -17 -11 -40 l0 -40 -42 0 c-33 0 -51 -7 -76 -30 -19 -16 -42
-32 -53 -35 -14 -5 -19 -16 -19 -41 0 -19 5 -34 10 -34 6 0 10 -7 10 -15 0
-20 65 -85 85 -85 20 0 19 -13 -5 -57 -11 -21 -20 -43 -20 -50 0 -13 -35 -53
-46 -53 -14 0 -34 -31 -34 -54 0 -14 -4 -26 -9 -26 -17 0 -71 -61 -71 -81 0
-16 -7 -19 -44 -19 -25 0 -48 5 -51 10 -3 6 -19 10 -36 10 -22 0 -29 5 -29 20
0 17 -7 20 -40 20 -29 0 -40 4 -40 15 0 9 -9 15 -24 15 -13 0 -38 3 -55 6 -31
6 -31 6 -31 -33 0 -21 4 -43 9 -49 6 -5 -3 -23 -25 -46 -30 -33 -40 -38 -77
-37 -29 2 -34 3 -14 6 15 2 27 7 27 10 0 22 -26 73 -37 73 -8 0 -13 12 -13 28
0 15 -5 33 -12 40 -9 9 -9 12 0 12 7 0 12 5 12 11 0 7 8 18 17 25 15 11 10 12
-37 8 -71 -7 -140 -24 -140 -35 0 -5 -6 -9 -13 -9 -8 0 -20 -18 -27 -40 -12
-36 -21 -45 -43 -41 -9 1 -8 -49 2 -113 6 -37 17 -57 47 -87 21 -21 47 -38 57
-39 13 0 17 -9 17 -38 0 -31 -4 -38 -21 -39 -12 -1 -32 -11 -44 -23 -34 -32
-97 -61 -120 -55 -72 19 -94 30 -106 51 -7 13 -16 24 -21 24 -4 0 -8 18 -8 40
0 22 5 40 10 40 6 0 10 18 10 40 0 33 -3 40 -19 40 -11 0 -22 6 -25 13 -5 10
-7 10 -12 0 -3 -7 -23 -13 -45 -13 -39 0 -39 0 -39 -40 0 -22 -5 -40 -10 -40
-7 0 -7 -7 0 -21 10 -17 8 -21 -9 -26 -11 -3 -22 -11 -24 -17 -8 -20 -91 -19
-115 1 -44 37 -66 53 -74 53 -4 0 -8 -927 -8 -2060 l0 -2060 2105 0 c2320 0
2143 -5 2070 61 -19 18 -35 36 -35 40 0 26 123 129 155 129 17 0 78 32 87 45
3 6 18 23 32 39 13 17 23 33 20 38 -3 4 -30 8 -60 8 -30 0 -54 4 -54 10 0 5
-12 13 -27 16 -37 9 -120 64 -162 108 l-35 36 37 0 c21 0 45 -4 55 -10 31 -17
137 -38 151 -30 19 10 -10 26 -64 32 -35 5 -109 45 -192 103 -23 16 -31 59
-13 70 5 3 33 -8 63 -25 29 -16 59 -30 66 -30 7 0 23 25 36 55 19 42 30 55 46
55 12 0 23 8 26 20 5 19 11 20 107 14 57 -4 126 -15 158 -26 53 -18 59 -18 82
-3 20 13 49 16 163 14 163 -3 215 4 266 37 32 21 45 24 85 18 34 -4 59 -1 87
11 27 11 53 14 82 10 23 -3 44 -2 47 3 3 5 26 13 51 16 25 4 51 14 59 21 8 8
31 17 53 21 32 5 45 1 83 -25 46 -31 121 -43 135 -21 8 13 52 13 61 -1 8 -13
54 33 54 55 0 14 7 15 117 17 30 1 56 -7 90 -28 74 -45 122 -61 211 -68 80 -7
82 -7 82 15 0 13 -8 24 -20 27 -21 6 -26 18 -11 27 5 3 20 -5 32 -19 13 -13
27 -25 31 -25 9 0 -19 88 -42 133 -23 43 -25 57 -8 57 11 0 153 -66 240 -112
40 -21 90 -19 162 6 l35 12 -52 32 c-29 18 -59 32 -66 32 -7 0 -24 9 -38 20
-14 11 -22 20 -17 20 5 0 -2 7 -14 16 -17 11 -21 21 -16 40 3 13 2 30 -3 37
-5 6 -14 24 -21 40 -11 26 -11 27 16 26 15 -1 68 2 117 5 81 6 116 13 180 36
11 4 40 13 65 21 37 11 51 23 79 66 19 30 41 53 51 53 24 0 53 35 54 66 1 24
7 29 66 45 36 10 78 16 93 13 33 -7 87 13 87 31 0 7 10 19 22 27 20 13 16 15
-49 14 -39 -1 -69 -4 -67 -8 6 -9 -78 -22 -138 -21 -28 0 -59 8 -74 18 -24 16
-26 21 -20 66 6 47 5 51 -24 75 -20 17 -30 35 -30 54 0 27 1 27 70 32 73 6 94
13 71 27 -19 12 10 21 66 21 32 0 50 5 58 17 12 16 20 11 80 -50 37 -37 74
-67 81 -67 22 0 17 10 -21 47 -19 19 -35 39 -35 46 1 7 6 5 13 -4 16 -22 137
-92 145 -85 2 2 -10 29 -26 59 -31 58 -47 107 -35 107 4 0 16 -9 28 -20 14
-13 25 -16 35 -10 12 8 11 13 -8 33 -12 13 -22 27 -22 32 0 5 -7 17 -17 27 -9
10 -14 20 -12 23 3 2 32 -2 64 -10 33 -8 71 -14 85 -14 l25 -1 -22 18 c-16 12
-22 26 -20 48 2 29 4 31 25 23 31 -12 35 -11 29 5 -4 11 -1 13 11 9 13 -5 11
0 -6 19 -16 18 -20 27 -11 30 10 3 7 12 -8 34 -11 16 -30 49 -41 74 -24 52
-14 61 39 40 25 -11 32 -10 42 4 11 15 15 15 52 -4 22 -11 72 -40 110 -64 61
-39 72 -42 86 -30 18 16 33 19 24 4 -3 -5 3 -10 14 -10 12 0 21 5 21 10 0 6
13 10 29 10 44 0 64 25 57 72 -3 21 -5 38 -4 38 20 -1 104 -33 110 -43 6 -9 8
-9 8 1 0 9 7 9 30 -3 35 -18 41 -40 8 -29 -21 6 -21 6 -5 -11 14 -14 20 -15
33 -4 12 10 20 8 45 -10 l30 -22 19 23 c11 13 19 29 20 36 0 19 27 14 49 -9
16 -18 22 -19 40 -7 27 17 27 42 -1 87 -12 19 -24 44 -25 55 -2 11 -8 25 -14
33 -6 7 -9 19 -6 28 4 8 2 17 -4 21 -5 3 -6 11 -2 17 10 15 10 38 -1 56 -6 9
-3 17 8 23 11 6 14 17 10 32 -6 27 12 44 29 27 19 -19 68 -13 74 9 3 11 12 20
19 20 25 0 11 39 -31 88 -13 15 -16 25 -9 30 13 8 -58 237 -81 262 -8 9 -15
22 -15 28 0 7 -5 12 -11 12 -5 0 -7 5 -3 11 3 6 0 16 -7 21 -10 7 -9 8 6 3 47
-15 115 -27 180 -30 39 -2 59 -1 45 1 -32 7 -88 23 -123 36 -39 15 -102 123
-89 152 25 55 29 75 24 129 -4 50 -2 57 12 51 12 -4 16 0 16 15 0 12 5 21 10
21 13 0 32 46 32 77 0 17 8 23 37 28 33 5 39 12 75 85 21 44 44 80 51 80 14 0
55 34 55 45 0 11 23 28 126 90 51 30 99 55 109 55 9 0 19 8 22 19 3 13 11 17
24 14 10 -3 25 0 33 6 8 7 18 10 23 9 10 -4 23 7 123 103 44 42 80 82 80 88 0
6 4 11 9 11 12 0 61 47 61 59 0 6 8 18 19 28 27 27 71 114 71 143 0 14 8 30
19 37 10 6 19 22 19 35 2 42 8 61 25 73 9 7 17 17 17 24 0 19 61 12 98 -11 28
-17 50 -22 94 -21 49 2 59 -1 69 -19 7 -13 14 -17 21 -10 7 7 16 4 29 -9 10
-10 23 -19 28 -19 12 0 23 66 15 92 -4 14 -2 18 5 14 16 -10 13 3 -5 21 -14
15 -15 14 -12 -3 2 -11 -4 -20 -13 -22 -10 -2 -16 3 -15 10 0 7 -3 14 -9 16
-13 3 -14 -19 -2 -35 6 -9 6 -13 -2 -13 -17 0 -38 41 -46 88 -5 32 -15 49 -42
69 -33 25 -90 42 -78 22 3 -5 -1 -6 -9 -3 -9 3 -16 -1 -18 -13 -2 -11 -12 -18
-28 -18 -18 0 -25 -6 -25 -20 -1 -50 -38 -56 -95 -14 -19 14 -47 31 -61 38
-26 13 -55 58 -44 69 3 3 -10 14 -28 26 -25 16 -28 21 -14 24 16 3 17 21 1 71
-2 7 1 20 7 28 7 8 13 26 14 41 2 15 6 44 10 64 9 42 -2 177 -15 198 -7 12
-14 12 -27 4 -28 -17 -172 34 -158 56 3 5 14 6 25 3 41 -11 76 40 55 80 -8 16
-11 42 -8 66 12 92 -57 211 -123 211 -18 0 -37 -6 -41 -14 -4 -7 -18 -18 -30
-25 -12 -6 -20 -17 -18 -24 7 -16 -39 -37 -67 -29 -14 3 -19 2 -14 -6 5 -9 -6
-12 -38 -12 -49 0 -62 -16 -21 -26 28 -7 34 -24 9 -24 -8 0 -22 -7 -30 -15 -9
-8 -11 -15 -5 -15 6 0 11 -5 11 -11 0 -6 -15 -10 -32 -9 -87 5 -106 1 -112
-24 -4 -17 -15 -26 -37 -31 -17 -4 -33 -4 -36 -2 -3 3 -14 -3 -26 -14 -11 -10
-27 -19 -34 -19 -7 0 -10 -6 -7 -14 8 -20 -24 -28 -62 -16 -23 8 -39 8 -53 1
-25 -14 -34 -14 -26 -1 3 6 -1 7 -9 4 -9 -3 -13 -10 -10 -15 3 -5 -2 -9 -10
-9 -10 0 -13 6 -10 15 4 8 11 15 17 15 6 0 1 8 -13 17 -17 12 -25 13 -28 5 -5
-16 -34 -15 -58 3 -21 16 -59 20 -49 6 3 -5 0 -13 -6 -17 -8 -5 -8 -9 1 -14 9
-6 6 -10 -9 -15 -22 -7 -27 -20 -11 -30 25 -15 8 -26 -32 -21 l-43 7 33 -16
c26 -11 33 -20 30 -37 -3 -20 -8 -23 -38 -20 -26 2 -41 -2 -54 -17 -11 -12
-25 -21 -33 -21 -16 0 -17 -17 0 -23 6 -3 2 -6 -10 -6 -18 -1 -21 3 -17 27 3
15 7 35 10 45 5 14 1 18 -13 15 -26 -5 -27 -108 -1 -108 30 0 29 -19 -1 -35
-17 -8 -46 -26 -66 -39 -20 -14 -41 -26 -47 -28 -6 -2 -11 -15 -12 -28 -1 -28
-36 -50 -80 -50 -21 0 -27 4 -22 15 4 11 -2 15 -24 15 -29 0 -33 -5 -33 -42 0
-10 -6 -18 -14 -18 -24 0 -53 20 -53 35 0 8 -3 15 -7 15 -13 -1 -113 -76 -108
-82 3 -2 -23 -18 -57 -34 -44 -21 -63 -37 -70 -56 -7 -20 -16 -27 -31 -25 -15
1 -22 -4 -22 -18 0 -11 -6 -19 -13 -17 -8 1 -16 -6 -19 -17 -3 -11 -13 -23
-24 -26 -10 -3 -21 -14 -24 -25 -3 -10 -12 -21 -20 -24 -8 -3 -15 -12 -15 -20
0 -8 -4 -16 -10 -18 -5 -1 -11 -26 -13 -55 -3 -30 -11 -58 -21 -68 -9 -10 -16
-33 -16 -56 0 -32 -3 -39 -20 -39 -11 0 -19 -3 -19 -7 3 -21 -2 -33 -16 -33
-11 0 -15 -12 -15 -49 0 -40 -4 -53 -21 -65 -19 -13 -21 -21 -15 -68 4 -29 13
-62 20 -73 8 -11 16 -38 19 -60 3 -22 15 -69 27 -104 18 -50 20 -65 10 -71
-26 -16 -80 20 -80 52 0 11 -5 18 -13 15 -14 -4 -17 -76 -4 -94 13 -18 40 -16
33 2 -6 17 11 20 33 6 11 -7 10 -13 -5 -35 -11 -14 -29 -29 -41 -32 l-22 -6
24 -36 c14 -20 25 -41 25 -45 0 -5 9 -22 21 -39 24 -33 18 -48 -11 -30 -11 7
-20 8 -20 3 0 -6 8 -14 18 -20 16 -9 16 -11 1 -26 -15 -16 -18 -15 -42 10 -21
23 -24 32 -16 59 5 17 9 32 9 32 0 1 -11 5 -24 8 -14 3 -34 20 -46 36 -12 17
-27 30 -33 30 -17 0 -9 -77 10 -106 11 -18 12 -24 1 -30 -7 -5 -17 -9 -23 -9
-5 -1 -8 -7 -6 -15 17 -67 19 -85 10 -91 -5 -3 4 -6 20 -6 40 0 58 -17 73 -67
18 -63 18 -79 -4 -103 -15 -16 -18 -26 -10 -35 13 -17 17 -49 7 -71 -5 -13 -1
-25 15 -43 l23 -24 -24 -2 c-13 0 -43 -2 -66 -4 -24 -2 -45 1 -48 7 -4 5 2 9
11 9 15 0 14 4 -6 25 -14 15 -18 25 -11 25 7 0 11 6 8 14 -3 8 -1 16 6 19 8 2
8 14 -2 44 -14 42 -10 73 9 73 5 0 10 -8 10 -17 0 -9 3 -14 6 -10 4 3 3 14 -1
24 -4 10 -7 29 -6 43 1 17 -8 35 -29 55 -31 29 -70 94 -70 115 0 6 12 27 26
46 27 35 26 38 -14 34 -13 -1 -25 6 -29 17 -4 10 -11 21 -16 24 -4 3 -11 24
-14 47 -4 31 0 49 15 75 20 31 20 34 5 50 -16 16 -16 17 5 17 42 0 20 32 -30
44 -16 3 -28 3 -28 -2 0 -5 -14 -6 -31 -4 -29 4 -31 3 -24 -18 6 -20 5 -22
-18 -16 -29 7 -51 -13 -41 -39 5 -13 2 -16 -12 -13 -10 2 -23 16 -28 31 -8 23
-6 31 11 49 l22 21 -21 29 c-11 16 -21 43 -22 59 -1 19 -14 43 -36 66 -19 20
-29 33 -22 29 6 -4 12 -2 12 3 0 6 -4 11 -9 11 -5 0 -17 3 -27 7 -13 5 -15 3
-9 -7 5 -8 -6 -4 -23 8 -36 27 -48 42 -31 42 9 0 9 3 0 14 -7 8 -14 46 -16 84
-3 69 -3 70 31 97 39 31 42 55 14 95 -17 24 -18 32 -9 54 7 15 21 26 31 26 16
0 18 -7 17 -54 -2 -49 1 -57 27 -80 16 -14 23 -26 17 -26 -9 0 -10 -7 -3 -26
6 -14 8 -30 4 -35 -3 -5 0 -9 5 -9 6 0 11 -5 11 -11 0 -13 19 -32 47 -47 27
-15 34 -15 30 -1 -1 6 3 13 9 16 7 2 11 -6 10 -22 -1 -29 -21 -32 -56 -8 -22
16 -23 16 -17 -1 4 -10 7 -23 7 -29 0 -17 39 -39 78 -44 26 -4 32 -2 27 8 -6
8 -4 10 5 4 8 -5 11 -3 8 6 -6 18 30 49 49 42 11 -4 0 -19 -41 -57 l-56 -51
55 -60 55 -59 27 26 c21 22 24 30 14 41 -9 12 -8 16 4 21 20 7 19 35 -2 58 -9
11 -11 18 -5 18 7 0 12 18 12 45 0 32 -4 45 -14 45 -8 0 -16 -5 -18 -11 -3
-10 -38 -2 -38 10 0 3 16 17 36 30 20 14 33 30 30 37 -3 8 0 17 7 21 15 10 43
91 39 114 -2 10 2 20 8 24 13 8 1 57 -19 73 -15 11 -14 13 2 26 16 13 16 14
-10 21 -15 4 -39 9 -54 11 -35 4 -118 42 -95 43 15 1 16 4 6 16 -10 12 -8 18
11 35 13 10 27 19 32 20 11 0 8 -18 -5 -26 -8 -5 -6 -10 8 -15 18 -7 18 -8 -3
-8 -33 -1 -18 -37 19 -45 51 -10 68 -8 62 9 -4 9 0 15 10 15 9 0 16 5 16 11 0
5 13 15 30 20 34 12 40 29 11 29 -10 0 -21 7 -25 15 -3 9 -12 12 -21 9 -9 -4
-14 -12 -11 -19 3 -9 -2 -11 -16 -7 -11 2 -22 10 -25 17 -2 7 -16 16 -29 19
-14 4 -24 12 -23 19 4 31 -3 47 -22 58 -17 9 -20 8 -14 -3 6 -10 5 -11 -6 0
-7 6 -25 12 -40 12 -15 0 -32 7 -39 16 -11 13 -10 16 9 21 30 8 21 27 -15 31
-46 5 -55 23 -10 20 24 -1 41 2 44 10 2 7 10 12 18 12 8 0 14 7 14 15 0 16 30
35 54 35 11 0 8 -7 -10 -27 l-26 -28 22 -17 c29 -23 64 -8 54 24 -5 18 -3 20
19 14 25 -6 39 4 43 31 3 15 -34 24 -39 9 -2 -6 -8 -7 -13 -3 -5 5 -1 13 8 18
10 5 15 16 12 24 -4 9 0 15 9 15 10 0 13 7 10 20 -3 11 -11 20 -18 20 -17 0
-8 37 11 44 25 9 15 26 -15 26 -17 0 -33 5 -36 10 -3 6 0 10 8 10 8 0 17 9 20
20 4 15 14 20 36 20 28 0 30 2 21 24 -11 29 -5 36 31 36 32 0 79 19 79 32 0 4
-7 8 -15 8 -8 0 -15 -4 -15 -8 0 -7 -39 -7 -185 -2 -5 0 1 9 15 20 25 19 25
19 5 34 -20 15 -19 15 5 16 20 0 26 6 28 25 1 14 -3 25 -8 25 -6 0 -10 3 -10
8 0 4 24 6 52 4 l53 -3 -24 21 c-13 11 -19 20 -15 21 17 2 79 -2 99 -7 18 -4
-39 25 -117 59 -29 12 -28 27 3 27 10 0 19 5 19 10 0 6 -5 10 -11 10 -6 0 -18
8 -27 17 -16 16 -15 16 8 9 14 -5 50 -10 82 -12 l56 -4 -11 25 c-7 14 -18 25
-24 25 -7 0 -13 5 -13 11 0 6 6 9 13 6 22 -8 8 41 -15 57 -11 8 -18 20 -16 28
3 7 -5 20 -16 30 -20 16 -19 16 22 2 24 -8 48 -11 54 -8 7 5 9 2 6 -7 -4 -9 2
-14 17 -14 20 0 22 3 13 20 -6 11 -17 28 -26 38 -14 15 -13 17 6 17 12 0 22
-5 22 -10 0 -6 14 -9 30 -8 33 2 36 8 18 26 -9 9 -9 12 0 12 9 0 8 8 -4 25
-12 18 -13 25 -4 25 9 0 11 10 6 33 l-6 32 22 -25 21 -25 -5 27 c-5 24 -3 26
19 17 42 -16 56 -12 49 15 -4 15 0 28 9 36 8 7 15 19 15 27 0 7 6 16 14 19 8
3 13 15 11 26 -4 20 2 29 39 58 11 8 17 10 13 3 -5 -8 0 -11 12 -10 12 1 25
13 32 28 7 17 16 26 25 22 8 -3 14 -1 14 5 0 6 -6 12 -12 15 -7 2 -10 8 -6 12
8 9 31 -12 41 -37 3 -10 13 -18 22 -18 17 0 20 -11 5 -26 -17 -17 0 -43 41
-64 38 -20 99 -29 70 -11 -9 6 -1 10 25 13 22 3 45 0 53 -6 17 -12 12 -1 -19
44 -10 14 -21 40 -25 58 -3 18 -11 30 -16 26 -5 -3 -9 4 -9 15 0 28 7 26 39
-8 18 -20 25 -34 20 -43 -13 -20 -11 -26 14 -30 16 -2 23 -11 25 -31 l3 -28
34 25 c41 31 48 32 40 5 -5 -14 -1 -25 12 -34 13 -10 14 -13 3 -12 -8 1 -15
-2 -15 -8 0 -5 6 -9 13 -9 8 1 11 -5 7 -16 -4 -13 0 -17 19 -17 27 0 54 24 73
65 11 27 11 27 12 -12 1 -29 4 -37 16 -32 8 3 23 -3 33 -14 24 -26 104 -80
120 -80 7 0 30 -11 52 -25 l40 -25 -5 54 c-3 43 -1 54 10 50 7 -3 16 -16 19
-29 7 -27 40 -50 57 -39 6 4 8 20 4 40 l-6 34 46 0 c25 0 45 2 45 5 0 3 -14
31 -31 63 -18 31 -37 67 -43 79 -6 13 -14 23 -18 23 -5 0 -8 5 -8 11 0 12 -46
59 -57 59 -3 0 -3 -7 1 -15 7 -20 -9 -19 -34 3 -22 18 -62 43 -144 89 -27 16
-78 48 -115 72 -36 24 -80 50 -98 58 -18 7 -33 20 -33 27 0 16 -34 31 -49 22
-5 -4 -17 1 -25 10 -21 20 -21 48 -1 40 8 -3 14 -2 14 2 -3 19 3 22 21 12 11
-6 55 -12 98 -15 66 -3 162 -26 262 -63 30 -10 50 -12 50 -3 0 8 -15 17 -33
20 -4 0 -21 8 -37 16 -17 9 -30 12 -30 8 0 -5 -4 -2 -8 5 -12 19 -70 33 -76
19 -2 -7 -2 8 1 33 l5 46 -41 -4 c-35 -3 -40 -7 -30 -18 19 -23 3 -28 -96 -29
-77 0 -95 3 -95 14 0 12 -3 12 -12 3 -7 -7 -18 -12 -26 -12 -9 0 -6 7 9 18 20
16 39 19 109 17 51 -1 75 1 60 5 -14 5 -41 9 -60 9 -19 1 -42 5 -49 10 -10 7
-24 3 -43 -10 -15 -11 -28 -17 -28 -14 0 13 27 33 74 54 27 12 47 24 44 27 -3
3 -23 -3 -44 -12 -22 -10 -43 -20 -49 -22 -5 -3 -1 5 10 18 19 21 17 21 -34
-6 -38 -19 -56 -24 -59 -16 -2 7 -9 9 -14 6 -6 -4 -18 2 -26 12 -14 19 -15 19
-8 0 5 -15 4 -17 -7 -7 -10 8 -22 8 -46 0 -17 -6 -38 -9 -46 -5 -8 3 -17 1
-20 -3 -2 -5 -14 -11 -26 -14 -19 -5 -21 -3 -15 24 6 30 -7 41 -18 14 -9 -24
-25 -17 -19 8 6 20 4 20 -16 -5 -24 -30 -58 -33 -67 -5 -3 10 -3 21 0 24 3 4
6 0 6 -8 0 -11 2 -11 10 1 14 21 12 43 -2 34 -8 -5 -9 -2 -5 9 3 9 2 19 -3 22
-7 4 -6 13 0 25 5 10 10 27 10 37 0 11 11 34 25 53 37 50 30 59 -11 14 l-36
-39 7 50 c13 93 16 175 5 175 -5 0 -10 -10 -10 -22 0 -13 -12 -41 -25 -63 -14
-22 -25 -48 -25 -58 0 -11 -5 -15 -11 -11 -8 4 -9 0 -4 -15 4 -12 2 -21 -4
-21 -6 0 -11 -11 -11 -24 0 -14 -5 -28 -10 -31 -6 -4 -8 7 -4 31 5 35 4 37
-11 24 -13 -11 -18 -11 -24 -1 -5 7 -6 -21 -4 -63 4 -71 3 -76 -16 -76 -25 0
-51 26 -51 50 0 10 -9 22 -20 25 -11 3 -20 12 -20 19 0 8 -7 20 -16 27 -15 12
-16 11 -10 -9 13 -39 -26 -19 -59 31 -10 15 -27 33 -38 39 -18 9 -19 8 -14
-21 6 -29 -7 -45 -15 -20 -2 7 -8 6 -15 -3 -9 -11 -9 -20 2 -41 8 -15 12 -27
9 -27 -3 0 0 -6 6 -12 55 -66 58 -70 35 -62 -8 4 -15 1 -15 -6 0 -9 -6 -7 -19
4 -11 10 -17 24 -15 30 7 19 -39 47 -57 34 -11 -8 -9 -8 6 -4 18 6 19 5 3 -7
-12 -10 -14 -17 -7 -24 8 -8 7 -13 0 -17 -6 -4 -11 -2 -11 3 0 6 -5 11 -11 11
-6 0 6 -19 25 -42 47 -54 46 -67 -1 -31 -42 33 -78 50 -67 31 5 -7 0 -9 -14
-6 -12 4 -22 2 -22 -3 0 -14 44 -28 51 -18 3 5 11 -2 19 -16 7 -14 19 -25 25
-25 6 0 24 -14 41 -31 28 -30 28 -31 4 -19 -23 12 -24 12 -11 -4 8 -9 11 -19
8 -23 -4 -3 5 -19 19 -36 14 -16 22 -32 19 -36 -4 -3 -14 5 -24 18 -13 17 -20
20 -23 10 -3 -10 -6 -10 -12 -1 -4 7 -2 12 4 12 6 0 8 5 5 10 -3 6 -11 10 -16
10 -6 0 -7 -5 -3 -11 4 -8 -1 -9 -17 -4 l-24 7 23 -17 c12 -9 22 -22 22 -29 0
-8 7 -19 15 -26 21 -18 19 -30 -6 -25 -18 4 -19 2 -7 -12 11 -14 10 -15 -10
-9 -29 10 -29 -2 1 -14 19 -8 18 -9 -13 -8 -46 0 -81 10 -80 23 1 6 -7 12 -17
14 -10 2 -22 8 -26 15 -6 8 -10 8 -14 -1 -10 -25 -22 -13 -13 13 12 31 13 44
1 25 -11 -17 -51 -6 -51 14 0 9 6 12 16 8 12 -4 15 -2 12 8 -7 23 -69 38 -117
29 -42 -8 -45 -7 -86 36 -23 24 -51 45 -63 46 -12 0 -28 1 -34 2 -23 2 -39 36
-17 36 7 0 18 8 25 18 12 16 14 16 31 0 17 -17 16 -18 -7 -18 l-25 -1 24 -19
c13 -11 31 -20 40 -20 9 0 27 -9 41 -20 14 -11 36 -20 50 -20 18 0 21 -3 11
-9 -9 -6 6 -10 45 -13 32 -2 61 -3 63 -1 2 1 1 13 -3 27 -5 21 -14 27 -46 32
-22 4 -40 10 -40 15 0 5 -10 9 -22 9 -19 0 -20 -2 -8 -10 22 -14 7 -12 -33 5
-25 10 -35 20 -31 30 4 9 -3 19 -20 26 -14 7 -26 18 -26 26 0 10 5 11 19 3 11
-5 23 -15 26 -20 3 -6 15 -10 25 -10 26 0 16 26 -24 63 -30 28 -30 28 -6 22
l25 -7 -23 23 c-14 15 -26 20 -30 14 -10 -14 -67 -45 -82 -45 -7 0 -19 -8 -26
-17 -13 -17 -13 -17 -14 0 0 10 -8 17 -18 17 -10 0 -23 5 -30 12 -8 8 -15 8
-28 -3 -12 -9 -15 -10 -10 -1 4 6 3 12 -1 12 -17 0 -55 -33 -63 -56 -6 -14
-18 -24 -30 -24 -24 0 -26 13 -5 30 8 7 15 20 15 30 0 9 9 25 20 35 11 10 17
22 13 27 -3 6 -1 13 5 17 7 4 3 12 -10 20 -18 11 -20 11 -15 -3 4 -10 1 -16
-8 -16 -8 0 -15 -9 -15 -19 0 -17 -25 -36 -43 -33 -20 5 -97 -108 -97 -142 0
-9 -4 -16 -10 -16 -5 0 -10 -7 -10 -15 0 -8 -4 -15 -10 -15 -5 0 -10 6 -10 13
0 8 -3 8 -9 -2 -11 -17 -3 -43 10 -35 5 3 9 -4 9 -14 0 -23 27 -37 44 -23 6 5
29 14 50 20 32 8 44 7 68 -7 15 -9 28 -24 28 -32 0 -9 3 -20 7 -24 4 -3 8 -17
10 -29 2 -19 -2 -16 -30 16 -17 20 -39 37 -47 37 -12 0 -12 2 -1 9 10 7 11 10
1 16 -8 5 -18 1 -26 -9 -7 -10 -28 -19 -48 -20 -49 -4 -52 -10 -20 -35 25 -19
25 -21 6 -21 -18 0 -20 -5 -16 -37 2 -21 9 -42 14 -47 14 -14 12 -29 -2 -20
-7 4 -8 3 -4 -4 4 -7 14 -12 22 -12 8 0 14 -4 14 -10 0 -5 -4 -10 -9 -10 -11
0 -9 -40 3 -59 14 -22 -3 -25 -25 -5 -16 14 -21 15 -17 4 2 -8 14 -19 26 -25
12 -5 20 -15 18 -22 -3 -7 7 -22 22 -33 l27 -21 -30 5 -30 6 28 -21 c15 -11
27 -26 27 -32 0 -8 -3 -9 -8 -1 -10 14 -72 44 -72 35 0 -4 10 -12 22 -18 13
-6 17 -12 11 -16 -6 -4 -22 3 -37 14 -14 11 -26 16 -26 10 0 -6 5 -11 10 -11
6 0 10 -7 10 -17 0 -32 -40 18 -46 59 -4 21 -11 38 -16 38 -5 0 -7 4 -3 10 3
5 -5 25 -17 44 -24 37 -46 49 -33 19 4 -10 10 -31 13 -48 2 -16 8 -35 13 -41
5 -6 11 -28 14 -50 3 -21 8 -45 10 -52 4 -9 -1 -11 -15 -7 -19 6 -25 -6 -21
-42 1 -7 -7 -9 -19 -6 -20 5 -20 5 -3 -26 14 -25 15 -33 5 -39 -10 -7 -9 -14
6 -33 20 -26 35 -59 26 -59 -2 0 -16 7 -29 16 -13 9 -29 13 -34 10 -6 -4 -8 2
-6 13 2 11 -3 22 -11 25 -9 3 -12 2 -9 -5 12 -18 -79 -1 -92 18 -7 9 -15 14
-19 11 -3 -3 22 -27 56 -53 61 -47 78 -77 21 -35 -17 11 -36 18 -42 14 -8 -4
-7 -9 2 -15 11 -7 11 -9 1 -9 -7 0 -15 7 -18 15 -3 8 -21 19 -40 25 -19 6 -34
16 -34 21 0 5 -5 9 -12 9 -6 0 -1 -11 12 -25 45 -48 11 -37 -43 14 -50 47 -87
65 -87 41 0 -5 6 -10 13 -10 8 0 22 -9 32 -20 20 -23 14 -26 -18 -8 -19 10
-20 9 -10 -4 11 -13 6 -13 -37 -4 -28 5 -50 14 -50 18 0 9 -55 9 -87 0 -30 -9
-16 -31 23 -36 16 -3 60 -14 98 -25 38 -10 75 -17 81 -14 7 2 16 -1 20 -7 9
-14 -118 -4 -147 12 -10 5 -34 8 -55 6 -22 -1 -38 3 -41 10 -2 7 -8 12 -14 12
-5 0 0 -14 12 -30 l21 -30 -23 -9 c-13 -5 -26 -7 -30 -4 -11 6 -10 -5 3 -29 9
-16 8 -19 -2 -13 -9 6 -10 3 -6 -10 9 -21 -9 -45 -34 -45 -20 0 -33 -29 -23
-54 4 -10 1 -16 -9 -16 -18 0 -30 -37 -15 -47 7 -3 8 -1 4 5 -4 7 -1 12 8 12
20 0 29 -17 14 -24 -7 -3 2 -4 21 -2 30 3 32 2 16 -10 -14 -11 -15 -16 -6 -27
14 -17 6 -43 -16 -51 -8 -4 -13 -12 -10 -20 3 -8 -11 -27 -34 -45 -21 -18 -39
-36 -39 -41 0 -13 37 -13 45 0 3 6 13 10 21 10 8 0 14 -4 14 -10 0 -5 -6 -10
-14 -10 -8 0 -23 -13 -33 -30 -9 -16 -21 -30 -25 -30 -4 0 -8 -8 -8 -18 0 -10
-3 -22 -7 -26 -4 -3 -8 -15 -10 -26 -2 -17 1 -19 22 -14 14 3 25 3 25 -1 0
-10 -43 -44 -57 -45 -19 0 -27 -21 -12 -31 11 -7 12 -12 2 -29 -7 -11 -13 -26
-13 -34 0 -8 -5 -16 -11 -18 -5 -2 -11 -10 -13 -18 -1 -8 -10 -32 -19 -54 -9
-21 -17 -53 -16 -70 0 -24 2 -27 8 -12 4 11 15 20 25 22 12 2 16 -2 12 -13 -3
-8 -6 -22 -6 -31 0 -15 -2 -15 -10 -2 -8 13 -10 12 -10 -2 0 -10 -8 -18 -17
-19 -14 0 -13 -2 5 -9 28 -12 27 -24 -3 -80 -24 -45 -31 -41 -27 15 2 16 0 17
-7 5 -5 -8 -7 -27 -4 -42 3 -17 1 -28 -6 -28 -6 0 -11 -11 -11 -25 0 -26 14
-34 24 -12 3 6 3 1 -1 -13 -10 -40 -9 -55 4 -53 13 3 23 -41 22 -97 -2 -79 -1
-84 18 -69 15 13 16 11 9 -23 -4 -24 -3 -39 5 -44 7 -4 10 -3 7 2 -3 5 0 15 8
21 15 14 19 -1 28 -115 3 -35 9 -68 12 -73 3 -6 7 -31 9 -57 1 -26 9 -60 16
-77 7 -16 13 -34 14 -40 0 -5 4 -16 9 -23 4 -7 5 -16 2 -20 -4 -3 -12 9 -18
26 -7 18 -18 30 -24 28 -9 -3 -11 6 -8 32 3 27 1 33 -6 22 -8 -12 -10 -9 -11
13 -2 32 -2 33 -18 72 -9 22 -14 26 -21 16 -4 -8 -6 -21 -2 -29 3 -9 1 -13 -5
-9 -7 5 -9 0 -6 -13 3 -12 0 -20 -6 -20 -21 0 -4 -64 23 -87 15 -12 26 -28 26
-35 0 -7 17 -29 37 -50 20 -21 31 -38 24 -38 -8 0 -4 -8 9 -18 l22 -18 -32 -2
c-22 -2 -29 1 -24 9 4 8 3 9 -5 5 -13 -8 -44 12 -36 23 2 4 -1 8 -8 9 -42 6
-58 11 -108 35 -31 14 -70 40 -88 56 -31 29 -31 30 -9 37 13 4 26 7 31 6 12
-3 8 17 -6 25 -8 4 -22 21 -33 38 -10 16 -26 37 -34 46 -8 9 -21 24 -28 35
-11 17 -12 17 -6 -6 4 -14 3 -22 -1 -18 -9 8 -16 55 -15 100 0 21 -5 28 -31
33 -36 8 -45 3 -27 -16 18 -19 18 -67 0 -74 -9 -3 -12 0 -9 8 4 10 -3 12 -25
9 -29 -4 -30 -6 -26 -53 2 -36 -1 -49 -10 -49 -8 0 -16 9 -19 20 -6 23 -19 26
-26 8 -4 -10 -7 -10 -17 -1 -10 9 -10 16 -2 25 16 20 1 128 -18 128 -5 0 -6 9
-3 20 3 11 10 17 15 14 6 -4 5 3 -1 15 -14 25 -23 28 -14 4 6 -16 5 -16 -10
-4 -9 7 -14 17 -12 22 3 4 7 45 9 91 2 48 8 84 15 86 6 2 11 10 11 18 0 8 7
14 15 14 18 0 20 -27 3 -32 -9 -3 -8 -13 5 -39 l17 -34 0 28 c0 16 4 26 10 22
6 -3 10 0 10 7 1 7 7 2 14 -12 14 -24 14 -24 21 20 3 25 5 62 3 82 -3 34 -6
38 -30 38 -16 0 -28 -5 -28 -12 0 -6 -2 -9 -5 -6 -3 2 6 33 20 68 13 34 27 78
31 96 5 28 3 34 -12 34 -9 0 -26 -8 -36 -17 -15 -13 -21 -14 -31 -4 -9 10 -9
14 5 22 10 5 14 17 11 29 -5 20 33 78 52 79 6 1 19 15 28 31 16 26 16 30 3 30
-10 0 -16 9 -16 23 0 20 -4 23 -30 19 -33 -5 -41 -22 -10 -22 33 0 24 -34 -21
-73 -54 -49 -58 -51 -75 -36 -13 10 -17 10 -25 -2 -12 -19 -11 -29 1 -29 7 0
8 -13 5 -34 -4 -20 -2 -36 4 -40 14 -9 15 -56 1 -56 -5 0 -10 5 -10 10 0 6 -4
10 -10 10 -5 0 -10 -8 -10 -18 0 -10 -6 -26 -13 -36 -13 -18 -14 -18 -21 -1
-5 13 -10 14 -19 7 -13 -11 -61 -5 -55 7 2 3 10 20 18 36 8 17 23 39 32 49 26
29 22 36 -12 24 -23 -7 -28 -13 -21 -22 8 -9 5 -18 -7 -32 -22 -24 -56 -99
-55 -122 1 -9 -6 -37 -13 -61 -16 -49 -11 -65 11 -35 14 19 14 19 15 -2 0 -11
-3 -24 -7 -28 -5 -4 -9 -12 -9 -17 -3 -22 -6 -23 -13 -4 -7 18 -9 18 -35 -8
-15 -15 -32 -27 -37 -27 -6 0 -8 -10 -4 -22 6 -21 5 -22 -8 -5 -8 9 -17 17
-20 17 -8 0 -82 -74 -103 -103 l-16 -22 7 25 c4 14 12 27 16 28 5 2 9 9 9 15
0 21 44 64 85 83 38 18 79 74 84 114 1 8 3 38 6 65 3 28 7 55 9 62 3 6 -3 14
-12 18 -13 5 -14 8 -3 14 19 12 5 30 -19 24 -27 -7 -25 5 6 34 22 20 25 30 21
60 -4 19 -14 45 -24 56 -10 11 -13 17 -7 14 11 -6 24 12 24 34 0 18 -28 8 -33
-12 -6 -22 -27 -17 -27 6 0 17 -52 33 -57 18 -5 -13 -43 -5 -43 8 0 5 3 9 8 9
6 0 8 42 3 110 -1 20 -3 22 -11 10 -9 -13 -10 -13 -10 0 0 13 -1 13 -10 0 -5
-8 -10 -11 -10 -6 0 6 -7 1 -15 -10 -17 -22 -20 -54 -5 -54 21 0 8 -27 -30
-64 -36 -34 -55 -67 -30 -51 15 9 12 -4 -5 -21 -13 -14 -15 -13 -15 8 0 18 -2
20 -10 8 -5 -8 -7 -23 -4 -32 3 -10 1 -32 -4 -50 -5 -18 -5 -42 -1 -53 6 -16
8 -12 8 16 1 19 8 44 17 55 14 18 15 16 9 -21 -3 -22 -5 -47 -6 -57 0 -9 -9
-18 -20 -21 -12 -3 -19 -13 -18 -29 0 -12 3 -17 6 -10 8 21 21 13 25 -17 3
-22 1 -28 -10 -23 -11 4 -14 0 -10 -15 3 -12 2 -27 -3 -34 -7 -11 -11 -10 -23
6 -9 11 -16 16 -16 10 0 -5 -14 -10 -30 -11 -23 -1 -30 3 -30 18 0 11 -5 16
-10 13 -6 -4 -17 -1 -25 5 -11 9 -15 9 -15 1 0 -16 -16 -14 -35 5 -18 19 -28
14 -19 -9 3 -9 15 -17 27 -19 19 -3 20 -4 4 -19 -9 -9 -14 -18 -12 -21 2 -2
-5 -4 -16 -5 -15 -1 -17 2 -10 15 12 21 -15 62 -41 62 -10 0 -17 -4 -13 -9 3
-5 1 -13 -5 -16 -6 -4 -9 -1 -8 6 2 7 -7 18 -19 24 -27 12 -29 23 -5 32 9 3
25 15 34 27 19 23 24 76 8 76 -7 0 -9 13 -5 33 4 22 0 39 -12 55 l-18 22 -38
-27 c-20 -14 -37 -35 -37 -45 0 -10 -9 -29 -21 -41 -11 -12 -18 -30 -15 -39 2
-10 0 -18 -5 -18 -5 0 -13 -9 -17 -19 -4 -11 -25 -38 -46 -61 l-39 -43 31 5
c33 5 39 -1 23 -18 -12 -12 -32 -124 -25 -136 3 -5 1 -15 -6 -23 -9 -10 -7
-16 6 -23 13 -7 23 -4 39 14 23 25 45 31 45 13 0 -6 -9 -13 -20 -16 -18 -5
-25 -25 -21 -59 1 -6 -8 -19 -19 -29 -21 -19 -27 -45 -9 -45 12 0 52 20 59 30
3 4 25 10 50 13 l45 7 -28 -21 c-22 -17 -25 -24 -16 -35 9 -11 6 -16 -15 -24
-42 -16 -31 -30 19 -23 40 5 45 4 45 -14 0 -10 -5 -24 -12 -31 -6 -6 -9 -15
-5 -19 4 -4 13 -1 19 5 7 7 20 12 29 12 10 0 20 6 22 13 3 7 6 5 6 -6 1 -23
-32 -85 -56 -103 -14 -10 -15 -16 -5 -22 14 -10 -13 -51 -56 -86 -18 -14 -21
-21 -11 -27 10 -6 0 -19 -34 -49 -32 -28 -47 -50 -47 -66 0 -28 8 -30 26 -6
12 15 13 15 14 1 0 -9 -5 -30 -11 -47 -8 -23 -18 -31 -44 -36 -26 -5 -37 -15
-53 -46 l-20 -40 23 -6 c29 -7 65 12 65 34 -1 16 -2 16 -14 0 -7 -10 -18 -18
-25 -18 -17 0 -13 25 7 42 19 17 68 17 65 0 -14 -66 -14 -74 4 -67 10 5 36 9
58 10 22 2 51 6 65 10 24 6 24 6 6 -9 -11 -9 -46 -23 -77 -32 -56 -16 -58 -17
-52 -45 4 -22 2 -29 -10 -29 -18 0 -30 -62 -13 -72 8 -5 8 -13 -1 -28 -7 -11
-13 -31 -13 -45 0 -16 -6 -25 -15 -25 -8 0 -15 7 -15 15 0 8 -4 15 -10 15 -5
0 -10 22 -10 49 0 40 4 51 19 56 12 4 18 12 14 21 -6 17 -30 19 -36 2 -4 -10
-6 -10 -6 -1 -1 6 9 19 21 27 22 16 22 16 3 31 -20 15 -37 19 -67 16 -12 -2
-15 4 -11 17 2 11 0 22 -5 26 -17 10 -70 -49 -81 -91 -6 -22 -20 -48 -31 -58
-26 -23 -25 -41 1 -56 24 -12 35 -3 45 41 10 46 13 50 34 50 21 0 27 -14 10
-25 -13 -8 -38 -64 -42 -94 -3 -27 -28 -42 -28 -17 0 25 -19 19 -26 -9 -3 -13
-12 -29 -20 -36 -8 -6 -14 -19 -14 -29 0 -10 -7 -23 -15 -30 -8 -7 -15 -21
-15 -32 0 -10 -7 -30 -16 -44 -19 -28 -13 -42 8 -20 9 8 20 11 28 6 11 -7 10
-15 -3 -43 -9 -19 -23 -40 -32 -47 -8 -7 -15 -18 -15 -26 0 -7 -9 -18 -19 -24
-25 -13 -34 11 -22 62 6 27 5 42 -6 57 -8 12 -10 21 -4 21 6 0 11 7 11 15 0 8
-9 15 -20 15 -29 0 -25 15 10 40 37 27 38 39 3 37 -19 -1 -28 3 -28 13 0 9 9
15 21 15 49 1 65 42 45 112 -9 31 1 54 14 33 9 -14 25 -13 25 2 0 6 10 23 23
36 l22 24 -36 -7 c-25 -5 -39 -3 -45 6 -4 7 -3 14 3 16 6 2 19 10 29 18 14 11
16 17 7 23 -12 8 -7 52 6 52 9 0 8 42 -2 58 -5 7 -6 21 -2 31 10 32 15 91 8
91 -19 0 -198 -56 -201 -62 -5 -11 -32 -10 -32 0 0 19 78 92 98 92 12 0 22 5
22 10 0 6 9 10 20 10 14 0 20 6 18 18 -2 11 3 16 13 14 21 -3 109 34 109 46 0
6 -10 12 -21 15 -22 6 -22 6 5 37 31 38 32 47 5 55 -27 9 -19 30 12 31 13 0
32 5 43 11 28 16 6 52 -28 46 -36 -7 -61 4 -48 20 6 7 9 23 5 35 -4 15 -1 22
10 22 8 0 20 7 27 15 10 12 7 15 -17 21 -15 3 -41 9 -58 13 -34 8 -48 41 -17
41 11 0 38 -7 61 -15 61 -21 123 -10 150 26 20 26 20 29 4 28 -33 -2 -64 -14
-63 -24 0 -5 -8 -11 -20 -13 -27 -4 -26 13 3 33 15 12 18 19 10 22 -23 9 -13
38 18 55 28 16 29 19 14 34 -8 9 -22 13 -31 10 -8 -3 -17 1 -20 9 -4 8 -12 15
-20 15 -8 0 -14 5 -14 10 0 6 9 10 19 10 17 0 18 3 8 24 -6 13 -23 28 -37 34
l-25 10 27 1 c38 1 154 63 153 81 0 8 -17 23 -37 33 -43 20 -47 31 -17 48 15
8 19 8 15 0 -12 -18 79 -14 95 5 11 13 11 15 -2 14 -7 -1 -26 -2 -41 -1 -38 1
-36 29 3 43 16 6 28 13 25 15 -3 3 7 15 22 28 30 26 23 46 -10 26 -31 -19 -45
2 -19 28 24 24 27 41 7 41 -8 0 -18 5 -22 11 -8 13 22 34 50 34 21 0 44 30 33
42 -5 4 -12 1 -18 -7 -8 -13 -10 -13 -18 -1 -6 9 -6 22 0 32 13 25 11 30 -8
27 -32 -5 -28 36 4 50 23 10 10 11 -82 8 -60 -2 -97 -1 -81 1 37 6 56 25 56
57 0 18 5 26 18 26 11 0 23 13 31 35 14 40 9 55 -22 55 -12 0 -29 5 -37 10
-13 9 -13 11 0 20 13 9 13 11 0 21 -11 8 -12 12 -2 16 26 10 10 23 -28 23 -22
0 -40 -4 -40 -9 0 -4 -26 -11 -57 -14 -36 -4 -60 -12 -65 -21 -5 -9 -16 -16
-23 -16 -8 0 -15 -7 -15 -15 0 -8 5 -15 10 -15 6 0 10 -7 10 -15 0 -8 -4 -15
-10 -15 -5 0 -10 5 -10 10 0 6 -18 10 -40 10 -22 0 -40 -4 -40 -10 0 -5 -4
-10 -9 -10 -4 0 -6 23 -3 52 l5 51 -54 -6 c-30 -4 -64 -7 -76 -7 -13 0 -23 -6
-23 -12 0 -18 -45 -58 -64 -58 -9 0 -16 -4 -16 -10 0 -5 -7 -10 -15 -10 -8 0
-15 -4 -15 -10 0 -5 7 -10 15 -10 8 0 15 -4 15 -10 0 -14 -27 -13 -36 1 -3 6
-19 9 -35 5 -31 -6 -79 10 -92 31 -4 7 -24 13 -42 13 -22 0 -35 5 -35 13 0 7
-17 19 -37 26 -21 8 -41 19 -45 25 -16 24 -8 86 17 122 14 20 25 40 25 44 0 4
-45 5 -100 2 l-100 -5 0 27 c0 24 3 26 40 26 33 0 40 -3 40 -20 0 -17 7 -20
40 -20 33 0 40 3 40 20 0 17 -7 20 -40 20 -33 0 -40 3 -40 20 0 11 -7 20 -15
20 -11 0 -15 11 -15 40 0 23 5 40 11 40 6 0 -5 18 -25 40 -20 22 -36 49 -36
59 0 15 -10 21 -40 26 -25 4 -40 12 -40 21 0 10 -12 14 -40 14 -40 0 -40 0
-40 -39 0 -23 -10 -57 -26 -85 -23 -41 -25 -50 -14 -76 10 -25 9 -36 -14 -84
-14 -30 -26 -60 -26 -65 0 -17 -95 -14 -110 4 -6 8 -9 19 -5 25 12 19 -17 80
-38 80 -18 0 -19 5 -12 78 4 42 11 79 16 80 12 5 11 82 -1 82 -15 0 -12 28 6
55 10 15 26 25 40 25 15 0 24 6 24 15 0 11 11 15 40 15 26 0 40 -4 40 -13 0
-7 18 -23 40 -36 22 -12 40 -26 40 -32 0 -5 18 -9 40 -9 38 0 40 2 40 30 0 28
2 30 38 30 33 0 40 5 63 44 25 41 45 101 41 120 -6 21 21 76 37 76 44 0 46
126 3 195 -14 22 -25 45 -25 51 0 22 46 106 64 117 16 10 19 24 19 80 0 48 -5
73 -15 83 -8 9 -15 20 -15 25 0 5 7 9 15 9 8 0 15 7 15 15 0 8 6 25 13 36 10
17 10 23 0 26 -7 3 -13 20 -13 39 0 33 -1 34 -40 34 -29 0 -40 -4 -40 -15z
m4769 -269 c-16 -43 -31 -48 -19 -6 10 36 20 53 27 46 3 -2 -1 -21 -8 -40z
m-1014 -37 c11 -16 1 -19 -13 -3 -7 8 -8 14 -3 14 5 0 13 -5 16 -11z m862 -26
c-11 -10 -26 8 -20 23 5 15 7 14 15 -1 6 -9 7 -19 5 -22z m-797 3 c0 -2 -7 -9
-15 -16 -13 -11 -14 -10 -9 4 5 14 24 23 24 12z m680 -36 c6 -11 8 -20 6 -20
-3 0 -10 9 -16 20 -6 11 -8 20 -6 20 3 0 10 -9 16 -20z m-526 -6 c5 -14 4 -15
-9 -4 -17 14 -19 20 -6 20 5 0 12 -7 15 -16z m1126 -48 c0 -2 -7 -7 -16 -10
-8 -3 -12 -2 -9 4 6 10 25 14 25 6z m55 -16 c-3 -5 -11 -10 -16 -10 -6 0 -7 5
-4 10 3 6 11 10 16 10 6 0 7 -4 4 -10z m-1272 -50 c-22 -21 -24 -20 -17 7 4
14 11 20 20 16 12 -5 12 -8 -3 -23z m814 8 c-3 -8 -6 -5 -6 6 -1 11 2 17 5 13
3 -3 4 -12 1 -19z m-973 3 c6 -10 -22 -37 -29 -29 -8 7 5 38 15 38 5 0 11 -4
14 -9z m191 -21 c3 -5 -3 -10 -15 -10 -12 0 -18 5 -15 10 3 6 10 10 15 10 5 0
12 -4 15 -10z m-4315 -21 c0 -8 24 -9 80 -4 56 5 80 4 80 -4 0 -6 6 -11 14
-11 9 0 15 -14 17 -43 l4 -43 -45 1 c-55 2 -70 -3 -70 -21 0 -20 -18 -17 -32
6 -7 11 -21 20 -30 20 -10 0 -18 7 -18 16 0 9 -10 24 -21 33 -18 15 -20 21
-10 39 12 23 31 30 31 11z m4210 -54 c0 -14 16 -24 64 -39 10 -4 17 -9 14 -12
-3 -3 -24 3 -47 12 -29 11 -45 13 -54 6 -9 -8 -19 -5 -37 9 -23 19 -23 20 -4
14 14 -4 24 0 28 10 7 20 36 20 36 0z m250 -16 c0 -6 -4 -7 -10 -4 -5 3 -10
11 -10 16 0 6 5 7 10 4 6 -3 10 -11 10 -16z m140 -9 c0 -5 -5 -10 -11 -10 -5
0 -7 5 -4 10 3 6 8 10 11 10 2 0 4 -4 4 -10z m-130 -33 c20 5 75 -31 85 -55 4
-12 -2 -14 -40 -9 -36 5 -45 4 -45 -8 0 -21 -13 -19 -28 5 -8 14 -10 33 -5 58
4 20 9 30 10 21 3 -11 11 -15 23 -12z m105 -5 c-3 -3 -11 0 -18 7 -9 10 -8 11
6 5 10 -3 15 -9 12 -12z m-216 -18 c14 -12 -19 -1 -35 12 -18 14 -18 14 6 3
14 -6 27 -13 29 -15z m311 11 c7 -8 19 -15 26 -15 8 0 14 -4 14 -9 0 -5 17
-18 37 -28 20 -10 43 -29 52 -43 11 -19 11 -22 1 -12 -8 6 -29 12 -47 12 -35
0 -93 24 -93 38 0 5 5 13 11 19 9 9 6 11 -12 7 -18 -4 -20 -3 -10 4 10 8 6 12
-19 17 -24 5 -29 10 -19 16 21 13 45 11 59 -6z m77 -31 c-3 -3 -12 -4 -19 -1
-8 3 -5 6 6 6 11 1 17 -2 13 -5z m-632 -24 c3 -5 1 -10 -4 -10 -6 0 -11 5 -11
10 0 6 2 10 4 10 3 0 8 -4 11 -10z m1415 -19 c0 -5 -9 -11 -20 -14 -20 -5 -28
-27 -10 -27 6 0 10 -5 10 -10 0 -6 -11 -8 -25 -4 -31 8 -35 -20 -5 -36 11 -6
20 -15 20 -21 0 -6 -4 -7 -10 -4 -5 3 -10 0 -11 -7 0 -7 -7 2 -15 20 -15 33
-34 43 -34 17 0 -8 -4 -15 -10 -15 -5 0 -10 5 -10 11 0 5 -4 8 -9 4 -5 -3 -12
-1 -16 5 -3 5 0 10 7 10 7 0 19 10 27 21 11 18 11 23 -1 30 -11 7 -10 11 2 19
19 12 110 13 110 1z m-375 -11 c3 -5 1 -10 -4 -10 -6 0 -11 5 -11 10 0 6 2 10
4 10 3 0 8 -4 11 -10z m-25 -26 c19 -4 39 -7 44 -6 4 2 14 -5 22 -15 8 -11 13
-13 14 -5 0 6 6 12 14 12 8 0 16 4 18 10 2 6 17 6 43 -2 l40 -11 -73 -14 c-69
-13 -74 -13 -99 7 -14 11 -39 20 -54 20 -20 0 -29 5 -29 16 0 12 3 14 13 6 6
-5 28 -13 47 -18z m-665 6 c3 -5 1 -10 -4 -10 -6 0 -11 5 -11 10 0 6 2 10 4
10 3 0 8 -4 11 -10z m1155 -46 c0 -8 -4 -12 -10 -9 -5 3 -10 10 -10 16 0 5 5
9 10 9 6 0 10 -7 10 -16z m-52 -49 c-7 -7 -48 34 -48 47 0 5 12 -2 27 -16 15
-14 24 -28 21 -31z m-345 5 c-4 -16 -8 -18 -19 -9 -16 13 -10 29 11 29 8 0 11
-7 8 -20z m294 -2 c-3 -8 -6 -5 -6 6 -1 11 2 17 5 13 3 -3 4 -12 1 -19z m-144
-53 c-3 -9 -8 -14 -10 -11 -3 3 -2 9 2 15 9 16 15 13 8 -4z m213 -32 c-11 -11
-17 4 -9 23 7 18 8 18 11 1 2 -10 1 -21 -2 -24z m1 -35 c-3 -8 -6 -5 -6 6 -1
11 2 17 5 13 3 -3 4 -12 1 -19z m-47 6 c0 -3 -7 -12 -15 -20 -16 -17 -18 -14
-9 10 6 15 24 23 24 10z m-1435 -34 c19 -8 19 -9 -2 -9 -12 -1 -25 4 -28 9 -7
12 2 12 30 0z m-102 -24 c6 -16 -2 -28 -14 -20 -12 7 -11 34 0 34 5 0 11 -6
14 -14z m1831 -21 c-4 -8 -8 -15 -10 -15 -2 0 -4 7 -4 15 0 8 4 15 10 15 5 0
7 -7 4 -15z m-1677 -21 c-3 -3 -12 -4 -19 -1 -8 3 -5 6 6 6 11 1 17 -2 13 -5z
m1978 -4 c3 -6 -1 -7 -9 -4 -18 7 -21 14 -7 14 6 0 13 -4 16 -10z m-2091 -49
c-5 -6 -33 31 -33 44 -1 6 8 -1 19 -15 10 -14 17 -27 14 -29z m531 34 l30 -14
-30 6 c-16 3 -37 9 -45 14 -27 15 11 10 45 -6z m65 -25 c0 -5 -7 -7 -15 -4 -8
4 -15 8 -15 10 0 2 7 4 15 4 8 0 15 -4 15 -10z m-37 -17 c-7 -2 -19 -2 -25 0
-7 3 -2 5 12 5 14 0 19 -2 13 -5z m514 -25 c-3 -7 -5 -2 -5 12 0 14 2 19 5 13
2 -7 2 -19 0 -25z m-1800 16 c-3 -3 -12 -4 -19 -1 -8 3 -5 6 6 6 11 1 17 -2
13 -5z m53 -4 c13 -9 13 -10 0 -10 -8 0 -22 5 -30 10 -13 9 -13 10 0 10 8 0
22 -5 30 -10z m1326 -11 c19 -22 19 -22 -3 -8 -13 8 -23 17 -23 21 0 12 6 9
26 -13z m-892 -34 c11 -8 15 -15 10 -15 -6 0 -19 7 -30 15 -10 8 -14 14 -9 14
6 0 19 -6 29 -14z m821 -25 c3 -6 -5 -10 -19 -10 -19 0 -24 -4 -20 -15 5 -11
2 -14 -12 -9 -34 13 -36 16 -12 29 29 16 55 18 63 5z m500 0 c3 -5 2 -10 -4
-10 -5 0 -13 5 -16 10 -3 6 -2 10 4 10 5 0 13 -4 16 -10z m-1539 -40 c23 -12
29 -18 14 -14 -31 8 -79 33 -64 34 6 0 28 -9 50 -20z m1064 -12 c14 0 18 -2 8
-5 -11 -3 -15 -10 -11 -21 5 -14 3 -15 -7 -5 -8 8 -29 10 -57 6 -35 -5 -43 -3
-43 10 0 16 42 28 70 19 8 -3 26 -5 40 -4z m123 -84 c26 -4 50 -10 52 -14 6
-9 -56 -40 -79 -40 -9 0 -19 -6 -22 -14 -6 -16 -100 -50 -114 -41 -6 3 -7 -1
-4 -9 3 -9 1 -16 -5 -16 -6 0 -11 5 -11 11 0 6 -6 9 -14 6 -8 -3 -19 0 -25 7
-6 7 -22 11 -36 8 -16 -3 -25 0 -25 8 0 7 -7 10 -16 6 -9 -3 -12 -2 -9 5 4 5
16 7 27 3 15 -4 18 -3 13 6 -5 9 -2 10 14 5 12 -3 21 -2 21 4 0 5 9 13 20 16
11 4 18 10 15 15 -11 18 83 52 125 44 14 -2 47 -7 73 -10z m170 -41 c-7 -2
-19 -2 -25 0 -7 3 -2 5 12 5 14 0 19 -2 13 -5z m-1736 -27 c0 -8 -6 -12 -14
-9 -7 3 -13 9 -13 14 0 5 6 9 13 9 8 0 14 -6 14 -14z m75 -45 c42 -26 83 -66
47 -46 -36 21 -109 69 -109 72 0 9 20 0 62 -26z m1356 -60 c10 -6 8 -10 -10
-14 -41 -12 -55 -8 -34 8 23 17 26 18 44 6z m-151 -107 c-3 -3 -12 -4 -19 -1
-8 3 -5 6 6 6 11 1 17 -2 13 -5z m258 -33 c3 -5 -2 -16 -11 -25 -14 -14 -26
-19 -86 -31 -10 -2 -18 2 -18 9 0 8 -11 11 -32 9 -25 -3 -30 -2 -18 6 8 6 34
11 58 11 23 0 42 4 42 9 0 16 56 26 65 12z m2429 -64 c-11 -6 -19 -5 -25 4
-11 18 11 31 29 17 11 -10 10 -13 -4 -21z m-839 -18 c11 -16 -1 -22 -30 -15
-14 4 -23 11 -20 16 8 13 42 13 50 -1z m162 -25 c-3 -3 -12 -4 -19 -1 -8 3 -5
6 6 6 11 1 17 -2 13 -5z m-5097 -194 c0 -22 -7 -25 -29 -11 -16 10 -6 31 15
31 8 0 14 -9 14 -20z m670 -34 c-23 -39 -30 -44 -30 -22 0 16 40 69 47 62 3
-3 -5 -21 -17 -40z m127 -43 c-8 -8 -38 37 -32 47 5 7 12 1 21 -16 8 -15 13
-29 11 -31z m-83 35 c-5 -8 0 -9 15 -5 14 3 24 -1 31 -13 12 -22 7 -119 -8
-146 -6 -11 -10 -26 -10 -34 2 -32 -2 -50 -12 -50 -6 0 -8 17 -5 43 2 23 2 34
-1 25 -3 -10 -10 -18 -15 -18 -13 0 -11 34 3 48 9 9 9 12 1 12 -17 0 -26 -18
-29 -58 -4 -46 -11 -50 -25 -18 -10 21 -9 32 2 54 19 39 22 49 9 32 -10 -13
-11 -13 -7 0 2 8 11 14 19 12 19 -3 31 12 52 62 14 33 14 37 1 32 -8 -3 -22
-9 -31 -12 -11 -5 -15 -2 -12 12 2 11 8 22 13 26 14 11 17 10 9 -4z m941 -37
c-3 -6 -11 -11 -17 -11 -6 0 -6 6 2 15 14 17 26 13 15 -4z m-1020 -47 c-9 -9
-18 -14 -21 -11 -9 9 6 27 22 27 13 0 13 -2 -1 -16z m1890 -14 c3 -5 1 -10 -4
-10 -6 0 -11 -6 -11 -12 -1 -18 -57 -82 -63 -71 -2 4 -2 25 0 45 4 29 11 39
32 47 35 13 39 13 46 1z m-1915 -80 c0 -5 -2 -10 -4 -10 -3 0 -8 5 -11 10 -3
6 -1 10 4 10 6 0 11 -4 11 -10z m-350 -30 c0 -5 -4 -10 -10 -10 -5 0 -10 5
-10 10 0 6 5 10 10 10 6 0 10 -4 10 -10z m-77 -25 c3 -20 1 -25 -12 -23 -9 2
-17 13 -19 26 -5 31 24 29 31 -3z m2247 -16 c0 -11 -4 -17 -10 -14 -5 3 -10
13 -10 21 0 8 5 14 10 14 6 0 10 -9 10 -21z m59 -23 c7 -8 8 -17 3 -19 -4 -3
-13 3 -20 14 -14 22 0 26 17 5z m-2249 0 c0 -3 -10 -16 -22 -29 -19 -20 -27
-23 -48 -14 -25 10 -24 10 13 19 20 6 37 14 37 19 0 5 5 9 10 9 6 0 10 -2 10
-4z m2460 -21 c0 -8 -2 -15 -4 -15 -2 0 -6 7 -10 15 -3 8 -1 15 4 15 6 0 10
-7 10 -15z m677 9 c-3 -3 -12 -4 -19 -1 -8 3 -5 6 6 6 11 1 17 -2 13 -5z
m-2894 -51 c-7 -3 -13 -13 -13 -23 0 -10 -4 -22 -10 -25 -5 -3 -10 -1 -10 6 0
8 -12 10 -40 5 -25 -4 -40 -2 -40 4 0 5 7 10 15 10 8 0 15 4 15 9 0 4 11 6 25
3 15 -2 25 0 25 7 0 7 4 10 9 6 5 -3 13 0 16 6 4 5 10 7 14 3 3 -4 0 -9 -6
-11z m2132 -11 c-3 -3 -11 0 -18 7 -9 10 -8 11 6 5 10 -3 15 -9 12 -12z
m-2480 -2 c3 -6 -4 -10 -17 -10 -18 0 -20 2 -8 10 19 12 18 12 25 0z m955 -6
c0 -2 -9 -4 -20 -4 -11 0 -20 4 -20 9 0 5 9 7 20 4 11 -3 20 -7 20 -9z m-815
-14 c9 -14 42 -12 48 3 3 6 6 2 6 -10 1 -13 -10 -30 -28 -42 -36 -26 -37 -26
-44 -1 -4 14 -14 20 -34 20 l-28 0 25 20 c28 22 46 25 55 10z m447 -50 c-2
-17 -8 -30 -12 -30 -4 0 -11 -11 -14 -25 -4 -14 -11 -25 -16 -25 -13 0 -13 0
10 48 11 22 20 51 20 64 0 16 3 19 8 10 5 -7 7 -26 4 -42z m44 -15 c9 -28 8
-33 -1 -25 -14 11 -26 60 -16 60 3 0 11 -16 17 -35z m1655 -6 c5 -1 12 -2 17
-3 4 -1 25 -6 48 -10 25 -4 41 -13 41 -21 0 -18 -32 -12 -105 21 -30 13 -51
28 -47 34 4 6 12 5 21 -5 9 -8 20 -16 25 -16z m-2111 -15 c0 -8 -4 -12 -10 -9
-5 3 -10 10 -10 16 0 5 5 9 10 9 6 0 10 -7 10 -16z m630 -8 c0 -7 -7 -19 -15
-26 -13 -11 -15 -8 -13 14 2 26 28 38 28 12z m2393 -52 c-6 -16 -12 -17 -32
-5 -12 8 -13 12 -2 25 16 19 43 3 34 -20z m-2900 6 c3 -11 1 -18 -4 -14 -5 3
-9 12 -9 20 0 20 7 17 13 -6z m-163 -5 c-7 -9 -15 -13 -19 -10 -3 3 1 10 9 15
21 14 24 12 10 -5z m5506 1 c13 -10 16 -18 8 -25 -7 -8 -17 -4 -34 14 -26 28
-8 36 26 11z m-4099 -28 c-3 -7 -5 -2 -5 12 0 14 2 19 5 13 2 -7 2 -19 0 -25z
m4010 10 c31 -29 31 -62 1 -53 -30 9 -35 15 -43 48 -9 34 9 36 42 5z m-5467
-13 c0 -15 -27 -28 -41 -19 -5 3 -5 13 1 24 11 21 40 17 40 -5z m3069 -17
c-23 -21 -39 -20 -39 5 0 17 2 19 10 7 8 -12 10 -12 16 3 4 12 10 15 17 8 6
-6 5 -14 -4 -23z m-3139 -8 c0 -5 -4 -10 -10 -10 -5 0 -10 5 -10 10 0 6 5 10
10 10 6 0 10 -4 10 -10z m150 0 c0 -5 -4 -10 -10 -10 -5 0 -10 5 -10 10 0 6 5
10 10 10 6 0 10 -4 10 -10z m797 -12 c-3 -8 -6 -5 -6 6 -1 11 2 17 5 13 3 -3
4 -12 1 -19z m2140 -20 c-3 -8 -6 -5 -6 6 -1 11 2 17 5 13 3 -3 4 -12 1 -19z
m65 -8 c-5 -35 -12 -37 -37 -10 -18 19 -17 20 3 20 12 0 22 5 22 10 0 6 4 10
8 10 5 0 7 -13 4 -30z m-2719 13 c-7 -2 -19 -2 -25 0 -7 3 -2 5 12 5 14 0 19
-2 13 -5z m2917 -63 c0 -32 -11 -43 -34 -34 -20 8 -20 18 0 49 20 30 34 24 34
-15z m-2588 0 c5 -32 -6 -41 -16 -14 -9 23 -7 44 3 44 5 0 11 -13 13 -30z
m169 -30 c10 0 21 -4 24 -10 7 -12 -24 -13 -42 -2 -6 4 -14 21 -17 37 l-6 30
12 -27 c7 -16 20 -28 29 -28z m4585 -18 c4 -18 2 -32 -3 -32 -12 0 -34 60 -27
72 9 15 23 -4 30 -40z m-2246 -102 c13 -9 13 -10 0 -10 -8 0 -22 5 -30 10 -13
9 -13 10 0 10 8 0 22 -5 30 -10z m-2283 -102 c-6 -46 -15 -58 -27 -38 -5 9 -5
17 1 21 6 3 9 10 8 15 -5 27 2 55 12 48 7 -4 9 -22 6 -46z m-3737 3 c0 -22 5
-41 12 -43 25 -9 -20 -38 -56 -38 -29 0 -36 4 -36 20 0 13 7 20 20 20 17 0 20
7 20 40 0 33 3 40 20 40 17 0 20 -7 20 -39z m3297 2 c-3 -10 -5 -4 -5 12 0 17
2 24 5 18 2 -7 2 -21 0 -30z m498 27 c3 -5 2 -10 -4 -10 -5 0 -13 5 -16 10 -3
6 -2 10 4 10 5 0 13 -4 16 -10z m235 -61 c0 -6 -4 -7 -10 -4 -5 3 -10 11 -10
16 0 6 5 7 10 4 6 -3 10 -11 10 -16z m-60 -14 c0 -8 -7 -15 -15 -15 -16 0 -20
12 -8 23 11 12 23 8 23 -8z m-20 -39 c31 -13 110 -79 110 -92 0 -5 18 -21 39
-36 21 -15 41 -36 44 -47 5 -19 3 -19 -29 -4 -18 9 -30 21 -27 26 3 6 1 7 -5
3 -5 -3 -12 0 -15 6 -2 7 -8 10 -12 6 -5 -5 0 -17 10 -28 10 -11 13 -20 8 -20
-6 0 -16 7 -23 15 -16 19 -34 20 -27 1 4 -10 1 -13 -9 -9 -8 3 -13 12 -10 20
3 8 2 11 -3 8 -5 -3 -17 5 -25 17 -14 20 -16 20 -22 3 -5 -13 1 -25 20 -42 37
-31 23 -29 -20 3 -34 26 -35 26 -50 8 -13 -18 -14 -16 -8 17 5 30 2 41 -18 59
-16 15 -19 24 -10 27 7 3 12 22 12 45 0 43 2 43 70 14z m395 -46 c3 -5 1 -10
-4 -10 -6 0 -11 5 -11 10 0 6 2 10 4 10 3 0 8 -4 11 -10z m1465 -70 c12 -8 11
-10 -7 -10 -13 0 -23 5 -23 10 0 13 11 13 30 0z m-2873 -32 c-3 -8 -6 -5 -6 6
-1 11 2 17 5 13 3 -3 4 -12 1 -19z m-67 -54 c0 -14 -4 -23 -10 -19 -5 3 -10
15 -10 26 0 10 5 19 10 19 6 0 10 -12 10 -26z m-480 -2 c0 -12 -41 -54 -47
-48 -8 7 25 56 37 56 6 0 10 -4 10 -8z m1853 -11 c28 -15 39 -38 12 -27 -20 7
-19 -4 3 -20 15 -13 14 -13 -8 -5 -14 4 -25 15 -25 23 0 9 -7 23 -15 33 -16
19 -13 19 33 -4z m-212 -29 c35 -29 34 -52 -4 -48 -18 2 -31 9 -33 19 -1 11 3
14 14 10 14 -5 14 -3 -2 15 -23 27 -7 29 25 4z m-1731 -12 c0 -5 -4 -10 -9
-10 -6 0 -13 5 -16 10 -3 6 1 10 9 10 9 0 16 -4 16 -10z m1575 -10 c-3 -5 -11
-10 -16 -10 -6 0 -7 5 -4 10 3 6 11 10 16 10 6 0 7 -4 4 -10z m-1571 -95 c11
-8 18 -17 15 -19 -2 -3 -15 4 -29 14 -14 11 -20 20 -15 19 6 0 19 -6 29 -14z
m456 -4 c-7 -13 -7 -22 0 -26 5 -3 10 -16 10 -29 0 -12 5 -27 12 -34 9 -9 9
-15 1 -23 -9 -9 -15 -1 -24 29 -8 27 -16 39 -25 35 -8 -3 -14 -2 -14 1 0 15
31 66 41 66 6 0 6 -7 -1 -19z m-2514 -36 c15 -14 23 -25 18 -26 -5 0 1 -4 12
-9 17 -7 21 -16 20 -42 -1 -32 -4 -33 -53 -42 -28 -5 -63 -6 -77 -2 -22 5 -26
12 -26 42 0 39 14 72 39 91 24 18 37 16 67 -12z m2384 -64 c0 -12 -20 -25 -27
-18 -7 7 6 27 18 27 5 0 9 -4 9 -9z m3193 -41 c3 -11 1 -20 -4 -20 -5 0 -9 9
-9 20 0 11 2 20 4 20 2 0 6 -9 9 -20z m273 -55 c1 -27 -4 -59 -11 -70 -14 -24
-12 -104 4 -133 15 -28 14 -42 -4 -42 -8 0 -15 -4 -15 -9 0 -5 7 -11 15 -15 9
-3 15 -18 15 -36 0 -26 -3 -30 -28 -30 -24 0 -33 7 -52 48 -13 26 -26 51 -28
56 -3 5 0 6 7 2 8 -6 11 0 8 19 -2 15 -9 30 -16 34 -9 6 -10 11 -2 15 6 4 11
18 11 32 0 17 5 24 20 24 11 0 20 -4 20 -10 0 -5 7 -10 15 -10 27 0 16 18 -15
25 l-30 7 24 29 c16 18 23 36 19 46 -5 12 -2 15 10 10 17 -7 24 8 8 17 -5 3
-11 15 -14 26 -4 17 -1 21 16 18 19 -3 22 -10 23 -53z m-3876 26 c0 -6 -4 -12
-9 -15 -13 -8 -42 4 -35 15 7 12 44 12 44 0z m3925 -131 c8 -13 -20 -24 -41
-16 -20 8 -9 26 16 26 10 0 22 -5 25 -10z m-4370 -80 c3 -5 1 -10 -4 -10 -6 0
-11 5 -11 10 0 6 2 10 4 10 3 0 8 -4 11 -10z m-15 -65 c0 -17 -6 -25 -17 -26
-12 0 -14 -2 -5 -6 10 -4 4 -15 -19 -39 -25 -26 -29 -34 -16 -34 20 0 22 -11
5 -28 -17 -17 -43 -15 -81 6 -39 21 -38 43 7 97 32 38 46 44 46 20 0 -23 20
-18 42 10 11 14 24 25 29 25 5 0 9 -11 9 -25z m95 -15 c3 -5 1 -10 -4 -10 -6
0 -11 5 -11 10 0 6 2 10 4 10 3 0 8 -4 11 -10z m4318 -16 c-7 -3 -9 -13 -6
-22 5 -13 3 -14 -7 -5 -14 13 -5 33 13 32 9 0 9 -2 0 -5z m-3733 -27 c0 -8 -9
-22 -20 -32 -23 -20 -24 -17 -10 19 10 27 30 35 30 13z m-243 -29 c8 -6 8 -19
1 -44 -5 -19 -8 -45 -6 -57 6 -47 -39 -64 -82 -29 -34 28 -126 15 -154 -21
-28 -35 -36 -34 -37 6 0 17 -3 26 -6 19 -4 -10 -8 -10 -19 -1 -18 15 -18 29 1
29 10 0 15 10 15 33 0 65 8 77 54 77 22 0 54 -7 70 -15 35 -19 46 -19 46 -1 0
25 87 28 117 4z m143 -13 c0 -8 -7 -15 -15 -15 -16 0 -20 12 -8 23 11 12 23 8
23 -8z m213 -37 c7 -7 18 -25 26 -40 11 -22 12 -30 1 -43 -7 -8 -16 -13 -20
-10 -5 3 -12 0 -16 -6 -3 -6 -1 -15 6 -19 18 -11 5 -54 -31 -108 -23 -35 -29
-54 -29 -98 l0 -56 -41 39 c-24 23 -48 37 -60 35 -10 -2 -19 2 -19 7 0 22 -15
10 -29 -21 -35 -83 -45 -99 -70 -111 -22 -10 -26 -20 -29 -62 -2 -27 0 -46 4
-42 9 9 35 -13 28 -24 -11 -18 -43 -8 -63 19 l-20 27 -1 -43 c0 -36 -3 -43
-17 -40 -12 2 -19 14 -21 36 -3 30 -22 47 -22 20 0 -9 -4 -8 -10 2 -7 11 -10
5 -10 -23 0 -23 -4 -36 -10 -32 -5 3 -10 -2 -10 -13 0 -10 -11 -25 -25 -32
-14 -7 -25 -17 -25 -22 0 -4 -7 -8 -15 -8 -21 0 -19 13 5 28 11 7 20 18 20 26
0 7 9 21 20 31 24 22 26 55 4 55 -31 0 22 56 67 69 40 12 41 13 20 27 -27 19
-27 38 -1 31 17 -4 20 -2 15 13 -4 13 0 20 16 25 25 8 53 34 62 58 8 21 27 22
27 2 0 -23 6 -20 53 21 7 6 17 10 22 10 12 -1 19 49 11 71 -6 14 -8 14 -25 -1
-17 -16 -19 -16 -24 2 -7 27 5 43 23 32 22 -14 27 -13 60 20 17 17 34 28 38
26 4 -2 5 -40 1 -83 -4 -43 -4 -82 0 -86 9 -9 10 -1 14 78 1 43 8 69 24 91 12
16 25 42 28 57 4 15 11 30 16 33 5 3 9 14 9 25 0 22 7 24 23 7z m-156 -115 c2
-5 -7 -17 -21 -26 -20 -14 -25 -14 -30 -2 -3 10 0 12 11 8 11 -4 14 -2 9 5 -4
7 -4 17 -1 23 8 12 27 7 32 -8z m-469 -29 c25 -7 30 -24 7 -24 -8 0 -15 -5
-15 -11 0 -7 15 -9 43 -5 37 5 39 5 17 -6 -24 -11 -24 -12 -4 -15 17 -3 20
-10 17 -31 -4 -21 -2 -24 6 -12 9 13 14 12 33 -9 14 -14 19 -25 12 -28 -6 -2
-9 -15 -6 -28 3 -20 -1 -25 -24 -30 -16 -3 -42 -10 -58 -15 -18 -6 -35 -6 -46
0 -20 11 -33 51 -24 74 3 9 1 22 -4 29 -16 19 -10 57 8 57 12 1 11 4 -4 15
-11 8 -14 15 -8 15 7 0 12 7 12 15 0 17 4 18 38 9z m-279 -36 c6 -16 2 -28
-12 -44 -22 -26 -32 -24 -40 6 -3 11 -1 18 4 14 5 -3 9 1 9 8 0 12 19 38 27
38 2 0 7 -10 12 -22z m3191 -45 c0 -7 -4 -13 -10 -13 -5 0 -10 12 -10 28 0 21
2 24 10 12 5 -8 10 -21 10 -27z m-2595 -5 c-4 -13 -11 -27 -16 -32 -15 -17
-23 3 -11 29 15 32 36 34 27 3z m58 -24 c-9 -15 -19 -21 -21 -15 -4 13 16 41
29 41 5 0 2 -12 -8 -26z m-703 -24 c0 -5 -4 -10 -10 -10 -5 0 -10 5 -10 10 0
6 5 10 10 10 6 0 10 -4 10 -10z m5934 -6 c10 -4 16 -18 16 -40 0 -19 4 -34 8
-34 4 0 9 -11 10 -25 1 -14 -3 -25 -8 -25 -6 0 -10 10 -10 23 0 16 -3 18 -9 9
-6 -10 -10 -5 -14 16 -3 16 -9 41 -13 56 -7 28 -5 29 20 20z m-5154 -64 c0 -5
-4 -10 -10 -10 -5 0 -10 5 -10 10 0 6 5 10 10 10 6 0 10 -4 10 -10z m2530 -72
c0 -25 -3 -29 -10 -18 -13 20 -13 50 0 50 6 0 10 -15 10 -32z m-3358 5 c27
-24 22 -33 -17 -33 -19 0 -35 5 -35 10 0 6 5 10 10 10 6 0 10 7 10 15 0 19 9
19 32 -2z m141 -36 l39 6 -3 -46 c-4 -44 -3 -46 26 -51 72 -12 135 -31 135
-39 0 -5 -38 -7 -87 -4 -84 4 -87 4 -116 -24 -16 -16 -25 -29 -18 -29 6 0 11
-5 11 -11 0 -19 28 -39 54 -39 21 0 26 -5 25 -22 0 -13 -3 -17 -6 -10 -2 6
-20 12 -39 12 -30 0 -34 -3 -34 -27 0 -21 -7 -31 -27 -40 -33 -16 -53 -17 -53
-3 0 6 -6 10 -13 10 -11 0 -37 51 -37 73 0 4 11 7 25 7 22 0 25 4 25 35 0 24
5 35 15 35 8 0 15 7 15 15 0 9 -7 18 -15 21 -8 4 -15 12 -15 20 0 8 -4 14 -10
14 -14 0 -12 88 2 104 10 10 17 10 37 0 16 -9 40 -11 64 -7z m5877 3 c8 -5 12
-11 9 -14 -3 -3 -14 1 -25 9 -21 16 -8 20 16 5z m-7295 -50 c20 -22 20 -25
-12 -34 -20 -7 -23 -4 -23 23 0 36 10 39 35 11z m1775 -30 c0 -5 -2 -10 -4
-10 -3 0 -8 5 -11 10 -3 6 -1 10 4 10 6 0 11 -4 11 -10z m-90 -85 c0 -8 7 -15
16 -15 8 0 13 -4 10 -9 -7 -10 -66 -9 -66 2 0 10 23 36 33 37 4 0 7 -7 7 -15z
m270 2 c0 -7 -11 -35 -24 -63 -35 -70 -136 -159 -136 -119 0 8 4 15 9 15 18 0
72 63 93 108 12 26 26 53 31 60 12 16 27 15 27 -1z m-2350 -61 c6 -8 24 -16
40 -18 l28 -3 -16 -37 c-9 -21 -21 -38 -25 -38 -5 0 -18 -11 -29 -25 -22 -28
-38 -32 -38 -10 0 8 -4 15 -10 15 -5 0 -10 8 -10 17 0 24 -23 83 -32 83 -4 0
-8 5 -8 10 0 6 8 5 21 -2 17 -11 22 -10 30 5 12 21 32 22 49 3z m2140 -160 c0
-16 -19 -25 -37 -18 -23 8 -14 32 12 32 15 0 25 -6 25 -14z m-2117 -47 c22
-40 22 -49 -5 -49 -21 0 -58 45 -58 71 0 23 46 7 63 -22z m1833 16 c-16 -16
-56 -21 -56 -6 0 12 18 19 48 20 21 1 22 -1 8 -14z m-596 -20 c0 -8 -4 -15
-10 -15 -5 0 -10 7 -10 15 0 8 5 15 10 15 6 0 10 -7 10 -15z m5948 -10 c38
-26 37 -34 -1 -13 -24 12 -52 38 -42 38 3 0 23 -11 43 -25z m-6928 -51 c0 -8
-4 -12 -10 -9 -5 3 -10 10 -10 16 0 5 5 9 10 9 6 0 10 -7 10 -16z m862 -16
c41 -12 48 -26 48 -106 l0 -53 -55 -25 c-43 -20 -64 -24 -95 -19 -57 10 -90
44 -90 94 0 34 7 48 42 86 47 50 53 51 150 23z m-1371 -25 c19 -11 29 -26 29
-40 0 -13 6 -23 14 -23 7 0 16 -9 19 -20 4 -15 0 -20 -14 -20 -17 0 -19 -8
-19 -75 l0 -75 80 0 80 0 1 -42 c1 -24 1 -51 0 -60 -2 -14 5 -18 34 -18 42 0
79 -28 69 -53 -7 -18 -24 -23 -24 -7 0 6 -13 10 -30 10 -28 0 -30 -2 -30 -40
0 -24 -5 -40 -12 -40 -6 0 -3 -7 8 -15 17 -13 17 -14 2 -15 -31 0 -19 -20 11
-20 36 0 50 -17 19 -22 -19 -2 -24 -10 -26 -42 -4 -49 -21 -66 -66 -66 -25 0
-36 -4 -36 -15 0 -23 -16 -18 -39 13 -11 15 -26 32 -32 37 -6 6 -24 22 -41 38
-16 15 -34 27 -39 27 -5 0 -9 7 -9 15 0 8 -9 15 -21 15 -29 0 -59 18 -59 35 0
9 -10 16 -25 16 -14 1 -34 2 -44 3 -11 0 -35 16 -53 34 -27 26 -43 32 -78 33
-35 1 -39 3 -21 8 l25 7 -24 22 c-17 16 -24 35 -27 74 -5 51 -3 54 39 95 33
32 52 42 83 45 39 3 40 4 40 43 0 33 6 45 37 73 21 19 35 38 32 43 -22 36 94
53 147 22z m469 -19 c0 -14 -10 -30 -25 -40 -24 -16 -27 -16 -45 1 -27 24 -25
35 5 35 18 0 25 5 25 19 0 14 5 18 20 14 13 -3 20 -14 20 -29z m2114 4 c9 -34
7 -38 -9 -32 -16 6 -21 54 -6 54 5 0 11 -10 15 -22z m-2474 -18 c0 -5 -4 -10
-9 -10 -6 0 -13 5 -16 10 -3 6 1 10 9 10 9 0 16 -4 16 -10z m240 0 c0 -5 -4
-10 -10 -10 -5 0 -10 5 -10 10 0 6 5 10 10 10 6 0 10 -4 10 -10z m30 -84 c0
-7 -7 -19 -15 -26 -8 -7 -15 -19 -15 -26 0 -8 -6 -14 -14 -14 -7 0 -19 -7 -26
-15 -7 -8 -19 -15 -26 -15 -8 0 -14 7 -14 15 0 8 8 15 18 15 13 0 23 13 32 40
10 32 18 40 37 40 13 0 23 -6 23 -14z m2258 -78 c-5 -15 -68 -24 -68 -9 0 10
21 18 53 20 11 1 17 -4 15 -11z m3868 -33 c18 -14 40 -25 49 -25 9 0 13 -4 10
-10 -3 -5 -1 -10 4 -10 6 0 11 -7 11 -16 0 -12 -4 -14 -12 -6 -7 5 -36 12 -63
14 -28 3 -63 13 -79 23 l-29 19 27 9 c14 5 24 13 20 18 -11 19 30 8 62 -16z
m-4242 -37 c-12 -56 -63 -104 -80 -77 -9 16 16 78 39 94 36 25 50 19 41 -17z
m286 -17 c0 -29 -31 -60 -89 -89 -74 -36 -102 -42 -80 -16 7 8 29 24 48 35 20
11 26 17 14 14 -56 -15 -20 32 47 61 25 11 60 8 60 -5z m4089 -17 c38 -8 41
-21 4 -18 -49 3 -53 4 -53 14 0 12 7 12 49 4z m-144 -194 c3 -5 -1 -10 -9 -10
-9 0 -16 5 -16 10 0 6 4 10 9 10 6 0 13 -4 16 -10z m23 -50 c4 -10 -3 -11 -28
-6 -39 7 -44 11 -36 24 8 14 59 -1 64 -18z m-4058 -129 c0 -12 -48 -23 -62
-15 -8 5 -5 10 8 15 27 11 54 11 54 0z m390 -191 c0 -5 -4 -10 -10 -10 -5 0
-10 5 -10 10 0 6 5 10 10 10 6 0 10 -4 10 -10z m2827 -323 c12 4 87 -39 98
-57 8 -13 2 -13 -54 5 -26 9 -60 27 -76 40 -29 24 -29 25 -5 16 14 -4 30 -6
37 -4z m192 -51 c7 -8 8 -16 4 -18 -11 -7 -54 17 -46 25 11 11 30 8 42 -7z"/>
<path d="M6480 6420 c0 -6 7 -10 15 -10 8 0 15 2 15 4 0 2 -7 6 -15 10 -8 3
-15 1 -15 -4z"/>
<path d="M7170 6290 c0 -5 5 -10 11 -10 5 0 7 5 4 10 -3 6 -8 10 -11 10 -2 0
-4 -4 -4 -10z"/>
<path d="M2408 2613 c7 -3 16 -2 19 1 4 3 -2 6 -13 5 -11 0 -14 -3 -6 -6z"/>
<path d="M540 1560 c0 -5 5 -10 10 -10 6 0 10 5 10 10 0 6 -4 10 -10 10 -5 0
-10 -4 -10 -10z"/>
<path d="M5013 7052 c-37 -6 -26 -17 17 -17 22 -1 40 2 40 6 0 9 -31 15 -57
11z"/>
<path d="M5500 7055 c0 -15 18 -40 24 -34 3 3 -1 14 -9 25 -8 10 -14 15 -15 9z"/>
<path d="M5530 7051 c0 -5 5 -13 10 -16 6 -3 10 -2 10 4 0 5 -4 13 -10 16 -5
3 -10 2 -10 -4z"/>
<path d="M7450 7045 c-11 -13 -10 -14 4 -9 9 3 16 10 16 15 0 13 -6 11 -20 -6z"/>
<path d="M5562 7023 c2 -10 11 -19 21 -21 16 -3 17 -1 7 17 -13 25 -33 28 -28
4z"/>
<path d="M5073 6991 c-56 -35 -59 -39 -24 -35 17 2 34 -3 41 -11 7 -8 17 -15
23 -15 7 0 7 4 -1 12 -7 7 -12 18 -12 25 0 10 6 9 25 -3 l26 -17 -12 29 c-19
43 -21 44 -66 15z"/>
<path d="M5151 6994 c0 -11 3 -14 6 -6 3 7 2 16 -1 19 -3 4 -6 -2 -5 -13z"/>
<path d="M5282 6998 c5 -15 28 -23 28 -10 0 5 -7 13 -16 16 -10 4 -14 1 -12
-6z"/>
<path d="M5339 6990 c-20 -13 -1 -28 35 -28 24 0 33 4 30 13 -6 15 -48 25 -65
15z"/>
<path d="M8128 6993 c6 -2 18 -2 25 0 6 3 1 5 -13 5 -14 0 -19 -2 -12 -5z"/>
<path d="M8174 6968 c-3 -4 4 -8 16 -8 12 0 18 -4 15 -10 -4 -6 8 -10 29 -10
27 0 36 -4 36 -16 0 -11 -6 -15 -20 -11 -11 3 -20 1 -20 -4 0 -5 16 -9 35 -9
19 0 35 5 35 10 0 14 54 12 68 -2 7 -7 12 -8 12 -2 0 13 -30 27 -108 53 -61
20 -90 23 -98 9z"/>
<path d="M6155 6960 c-3 -5 1 -10 9 -10 9 0 16 5 16 10 0 6 -4 10 -9 10 -6 0
-13 -4 -16 -10z"/>
<path d="M5840 6951 c0 -6 4 -13 10 -16 6 -3 7 1 4 9 -7 18 -14 21 -14 7z"/>
<path d="M6735 6940 c4 -6 11 -8 16 -5 14 9 11 15 -7 15 -8 0 -12 -5 -9 -10z"/>
<path d="M6137 6911 c3 -12 11 -17 19 -14 18 7 18 10 -5 22 -16 9 -18 8 -14
-8z"/>
<path d="M6775 6910 c3 -5 8 -10 11 -10 2 0 4 5 4 10 0 6 -5 10 -11 10 -5 0
-7 -4 -4 -10z"/>
<path d="M0 6880 c0 -27 3 -30 30 -30 27 0 30 2 20 20 -6 11 -19 24 -30 30
-18 10 -20 7 -20 -20z"/>
<path d="M4340 6900 c0 -5 5 -10 10 -10 6 0 10 5 10 10 0 6 -4 10 -10 10 -5 0
-10 -4 -10 -10z"/>
<path d="M6340 6855 c-16 -17 -19 -25 -9 -24 17 1 58 17 45 18 -5 1 -3 8 4 16
22 27 -14 18 -40 -10z"/>
<path d="M5854 6849 c0 -10 4 -19 8 -19 4 0 8 6 8 14 0 8 -4 17 -8 20 -4 2 -8
-4 -8 -15z"/>
<path d="M6625 6857 c11 -8 35 -21 54 -30 30 -15 32 -15 20 0 -13 15 -69 43
-86 43 -4 0 1 -6 12 -13z"/>
<path d="M4417 6814 c-25 -22 -27 -26 -14 -44 13 -19 15 -19 28 -3 12 15 12
16 -4 10 -16 -6 -16 -3 3 24 28 39 23 44 -13 13z"/>
<path d="M5844 6776 c-3 -8 4 -24 15 -35 12 -12 21 -28 21 -38 0 -9 3 -14 6
-11 11 12 -8 98 -22 98 -8 0 -17 -6 -20 -14z"/>
<path d="M6615 6770 c-3 -5 2 -10 11 -10 10 0 25 -7 35 -16 10 -9 23 -14 29
-12 6 2 -7 14 -29 26 -25 14 -42 19 -46 12z"/>
<path d="M6850 6750 c0 -5 5 -10 11 -10 5 0 7 5 4 10 -3 6 -8 10 -11 10 -2 0
-4 -4 -4 -10z"/>
<path d="M6408 6673 c7 -3 16 -2 19 1 4 3 -2 6 -13 5 -11 0 -14 -3 -6 -6z"/>
<path d="M7776 6672 c-13 -12 -5 -22 19 -22 14 0 25 4 25 9 0 10 -36 21 -44
13z"/>
<path d="M7835 6650 c3 -5 8 -10 11 -10 2 0 4 5 4 10 0 6 -5 10 -11 10 -5 0
-7 -4 -4 -10z"/>
<path d="M8395 6620 c-3 -5 -1 -10 4 -10 6 0 11 5 11 10 0 6 -2 10 -4 10 -3 0
-8 -4 -11 -10z"/>
<path d="M5870 6511 c0 -5 7 -15 17 -22 15 -13 15 -12 4 9 -12 23 -21 28 -21
13z"/>
<path d="M8130 6460 c0 -11 33 -30 52 -29 7 0 3 5 -9 11 -13 6 -23 15 -23 20
0 4 -4 8 -10 8 -5 0 -10 -4 -10 -10z"/>
<path d="M3911 6366 c-9 -11 -8 -15 5 -20 10 -4 22 -2 28 4 8 8 6 9 -7 4 -13
-5 -16 -2 -11 10 8 20 0 21 -15 2z"/>
<path d="M3852 6282 c-8 -6 -2 -9 18 -9 20 0 26 3 18 9 -7 4 -15 8 -18 8 -3 0
-11 -4 -18 -8z"/>
<path d="M5770 6230 c0 -5 5 -10 11 -10 5 0 7 5 4 10 -3 6 -8 10 -11 10 -2 0
-4 -4 -4 -10z"/>
<path d="M7312 6109 c-14 -22 -7 -25 14 -5 8 8 11 17 6 20 -4 2 -13 -4 -20
-15z"/>
<path d="M4081 6089 c-17 -17 -31 -37 -31 -42 0 -6 16 6 35 28 43 46 39 60 -4
14z"/>
<path d="M8470 6116 c0 -4 7 -14 15 -22 17 -17 21 -49 5 -39 -16 10 -50 -5
-50 -21 0 -18 49 -18 73 0 18 14 25 42 7 31 -5 -3 -10 0 -10 8 0 8 -9 22 -20
32 -11 10 -20 15 -20 11z"/>
<path d="M8640 6110 c0 -5 10 -10 23 -10 18 0 19 2 7 10 -19 13 -30 13 -30 0z"/>
<path d="M4600 6089 c0 -5 5 -7 10 -4 6 3 10 8 10 11 0 2 -4 4 -10 4 -5 0 -10
-5 -10 -11z"/>
<path d="M8720 6080 c0 -5 5 -10 10 -10 6 0 10 5 10 10 0 6 -4 10 -10 10 -5 0
-10 -4 -10 -10z"/>
<path d="M4530 6055 c0 -8 4 -15 8 -15 5 0 9 7 9 15 0 8 -4 15 -9 15 -4 0 -8
-7 -8 -15z"/>
<path d="M4149 6034 c-7 -9 -5 -16 9 -23 24 -13 85 5 79 23 -5 15 -76 15 -88
0z"/>
<path d="M5296 6035 c4 -9 0 -15 -10 -15 -9 0 -16 -4 -16 -10 0 -5 3 -9 8 -8
4 0 14 -1 22 -5 28 -10 100 -15 100 -6 0 5 -14 9 -30 9 -20 0 -33 6 -37 18 -7
17 -22 32 -35 32 -4 0 -5 -7 -2 -15z"/>
<path d="M5350 6040 c8 -5 22 -10 30 -10 13 0 13 1 0 10 -8 5 -22 10 -30 10
-13 0 -13 -1 0 -10z"/>
<path d="M4425 6010 c4 -6 11 -8 16 -5 14 9 11 15 -7 15 -8 0 -12 -5 -9 -10z"/>
<path d="M4064 5975 c-13 -18 -24 -42 -24 -54 0 -12 -5 -31 -10 -42 -15 -26 4
-25 30 3 19 20 24 33 21 51 0 4 6 7 14 7 9 0 12 6 8 17 -4 11 -3 14 5 9 17
-10 52 3 52 19 0 7 -15 15 -36 17 -31 4 -39 0 -60 -27z"/>
<path d="M4488 6002 c-16 -2 -28 -8 -28 -13 0 -6 5 -7 10 -4 6 3 10 -1 10 -9
0 -9 7 -16 15 -16 18 0 20 -20 3 -20 -8 0 -5 -7 6 -15 26 -20 66 -19 66 0 0 8
5 15 10 15 6 0 10 5 10 11 0 7 -12 8 -32 4 -32 -6 -32 -5 -10 8 22 12 22 15 7
27 -19 16 -28 17 -67 12z"/>
<path d="M4560 6006 c0 -2 8 -10 18 -17 15 -13 16 -12 3 4 -13 16 -21 21 -21
13z"/>
<path d="M3499 5973 c-11 -2 -21 -24 -29 -63 -7 -33 -17 -60 -21 -60 -5 0 -9
-9 -9 -21 0 -15 5 -19 16 -15 8 3 12 2 9 -4 -7 -11 35 -31 48 -23 4 2 7 13 7
24 0 25 20 32 53 20 22 -9 27 -7 33 11 3 12 15 31 25 42 11 11 19 25 19 32 0
14 -82 28 -111 19 -16 -5 -20 -3 -17 12 2 10 8 21 13 25 11 8 -9 9 -36 1z"/>
<path d="M5405 5960 c27 -12 43 -12 25 0 -8 5 -22 9 -30 9 -10 0 -8 -3 5 -9z"/>
<path d="M7940 5920 c-13 -8 -12 -10 3 -10 9 0 17 5 17 10 0 12 -1 12 -20 0z"/>
<path d="M3659 5888 c-11 -8 -11 -9 3 -5 9 3 18 2 20 -2 2 -5 14 -12 28 -16
28 -8 26 -6 -11 17 -18 12 -30 13 -40 6z"/>
<path d="M4584 5891 c-2 -2 -4 -12 -4 -21 0 -17 4 -17 -153 -9 -49 3 -70 0
-76 -10 -6 -9 -14 -10 -27 -4 -24 12 -184 4 -184 -9 0 -5 -4 -6 -10 -3 -5 3
-10 1 -10 -4 0 -11 2 -12 35 -16 12 -1 30 -7 40 -12 11 -6 36 -9 55 -7 31 2
130 -22 130 -32 0 -2 -26 -2 -57 1 -49 4 -53 3 -26 -5 18 -6 35 -15 38 -20 3
-6 33 -10 65 -10 49 0 58 -3 54 -15 -4 -10 0 -15 15 -15 12 0 21 3 21 8 -1 10
-30 48 -35 45 -14 -8 -65 -2 -60 7 3 6 24 10 46 10 24 0 39 5 39 13 0 6 5 4
11 -6 6 -10 20 -22 32 -27 21 -8 20 -9 -5 -9 -16 -1 -28 -4 -28 -9 0 -12 39
-42 55 -42 8 0 12 -6 9 -14 -6 -16 52 -46 90 -46 30 0 33 8 9 26 -16 11 -13
12 20 7 32 -5 37 -3 37 14 0 12 -7 26 -15 33 -9 7 -13 15 -10 18 5 6 -46 52
-57 52 -5 0 -8 5 -8 10 0 6 7 10 15 10 8 0 15 7 15 16 0 9 -6 14 -13 11 -18
-7 -40 7 -43 27 -3 19 12 30 21 16 3 -5 16 -10 28 -9 12 0 16 3 10 6 -7 2 -13
11 -13 19 0 13 -44 17 -56 5z m-164 -61 c-27 -7 -52 -2 -45 9 2 4 19 5 37 3
31 -5 32 -6 8 -12z m194 -76 c25 -10 19 -22 -9 -16 -14 2 -22 8 -19 13 6 11 8
11 28 3z m46 -15 c0 -6 -4 -7 -10 -4 -5 3 -10 11 -10 16 0 6 5 7 10 4 6 -3 10
-11 10 -16z m-18 -33 c15 0 25 -3 22 -7 -3 -5 -12 -9 -20 -9 -8 0 -14 -4 -14
-10 0 -5 -12 -10 -27 -10 -20 0 -24 3 -16 11 6 6 9 19 5 28 -4 12 -3 14 9 6 8
-6 26 -10 41 -9z"/>
<path d="M4655 5890 c-3 -5 -1 -10 4 -10 6 0 11 5 11 10 0 6 -2 10 -4 10 -3 0
-8 -4 -11 -10z"/>
<path d="M4520 5880 c0 -5 7 -7 15 -4 8 4 15 8 15 10 0 2 -7 4 -15 4 -8 0 -15
-4 -15 -10z"/>
<path d="M4688 5863 c6 -2 18 -2 25 0 6 3 1 5 -13 5 -14 0 -19 -2 -12 -5z"/>
<path d="M1740 5840 c0 -5 5 -10 10 -10 6 0 10 5 10 10 0 6 -4 10 -10 10 -5 0
-10 -4 -10 -10z"/>
<path d="M3620 5830 c-8 -5 -12 -11 -9 -14 3 -3 14 1 25 9 21 16 8 20 -16 5z"/>
<path d="M3660 5836 c0 -2 7 -7 16 -10 8 -3 12 -2 9 4 -6 10 -25 14 -25 6z"/>
<path d="M4065 5788 c-34 -40 -69 -114 -60 -128 4 -6 -5 -27 -20 -46 -20 -26
-25 -42 -21 -60 4 -14 11 -22 16 -19 18 11 10 -22 -11 -49 -17 -21 -18 -26 -5
-26 9 0 16 5 16 10 0 6 7 10 15 10 8 0 15 8 15 18 0 10 5 23 12 30 9 9 7 13
-6 18 -16 6 -16 8 0 25 12 14 20 16 25 8 10 -17 70 27 63 46 -3 7 -12 11 -20
8 -8 -3 -14 0 -14 5 0 13 62 62 77 62 6 0 14 7 17 16 8 22 8 22 -11 27 -19 4
-16 7 33 22 22 7 14 15 -22 21 -16 3 -36 12 -45 20 -21 19 -23 18 -54 -18z"/>
<path d="M4230 5770 c0 -5 5 -10 10 -10 6 0 10 5 10 10 0 6 -4 10 -10 10 -5 0
-10 -4 -10 -10z"/>
<path d="M4775 5760 c3 -5 8 -10 11 -10 2 0 4 5 4 10 0 6 -5 10 -11 10 -5 0
-7 -4 -4 -10z"/>
<path d="M5140 5740 c0 -5 5 -10 11 -10 5 0 7 5 4 10 -3 6 -8 10 -11 10 -2 0
-4 -4 -4 -10z"/>
<path d="M8355 5720 c11 -5 27 -9 35 -9 9 0 8 4 -5 9 -11 5 -27 9 -35 9 -9 0
-8 -4 5 -9z"/>
<path d="M4378 5673 c7 -3 16 -2 19 1 4 3 -2 6 -13 5 -11 0 -14 -3 -6 -6z"/>
<path d="M4472 5659 c3 -8 13 -13 23 -11 10 2 14 -1 10 -7 -3 -6 -13 -11 -21
-11 -8 0 -12 -5 -9 -10 4 -6 11 -8 16 -5 5 4 9 -1 9 -9 0 -8 6 -13 13 -11 6 2
19 -6 28 -18 17 -22 16 -23 -20 -21 -20 2 -26 0 -14 -2 12 -3 24 -12 27 -20 7
-19 -23 -32 -34 -14 -5 8 -18 10 -39 5 -35 -8 -51 -25 -24 -26 12 0 9 -5 -11
-13 -26 -12 -27 -14 -11 -23 15 -9 13 -13 -19 -32 -20 -13 -36 -25 -36 -27 0
-8 85 38 106 57 28 26 61 32 68 12 4 -9 9 -13 13 -10 3 4 13 2 23 -3 9 -5 32
-12 50 -15 18 -3 45 -12 60 -20 22 -11 29 -12 33 -2 2 7 19 11 43 9 37 -2 38
-2 19 13 -19 16 -19 16 10 10 23 -5 26 -4 15 4 -8 6 -30 8 -49 4 -22 -4 -32
-2 -28 4 4 6 -1 10 -11 9 -11 0 -16 5 -14 16 2 11 -9 20 -33 28 -19 6 -38 10
-42 7 -5 -2 -16 4 -25 15 -17 17 -17 18 2 18 27 0 25 20 -4 48 -22 21 -25 21
-29 5 -4 -16 -5 -16 -12 2 -13 29 -29 43 -60 51 -21 5 -26 4 -23 -7z m88 -153
c0 -3 -4 -8 -10 -11 -5 -3 -10 -1 -10 4 0 6 5 11 10 11 6 0 10 -2 10 -4z"/>
<path d="M4150 5649 c0 -5 5 -7 10 -4 6 3 10 8 10 11 0 2 -4 4 -10 4 -5 0 -10
-5 -10 -11z"/>
<path d="M4818 5613 c7 -3 16 -2 19 1 4 3 -2 6 -13 5 -11 0 -14 -3 -6 -6z"/>
<path d="M4720 5601 c0 -5 9 -7 20 -4 11 3 20 7 20 9 0 2 -9 4 -20 4 -11 0
-20 -4 -20 -9z"/>
<path d="M5115 5600 c3 -5 16 -10 28 -9 21 0 21 1 2 9 -28 12 -37 12 -30 0z"/>
<path d="M4075 5430 c-27 -10 -48 -36 -40 -50 3 -5 1 -10 -4 -10 -6 0 -11 -4
-11 -10 0 -5 8 -10 18 -10 14 0 15 -2 2 -10 -8 -5 -11 -13 -6 -17 4 -4 16 3
27 17 10 14 30 36 44 50 23 23 24 26 7 36 -9 6 -26 8 -37 4z m30 -20 c-3 -5
-10 -10 -16 -10 -5 0 -9 5 -9 10 0 6 7 10 16 10 8 0 12 -4 9 -10z"/>
<path d="M4603 5388 c1 -12 5 -14 11 -8 6 6 20 10 33 10 13 0 23 4 23 9 0 5
-15 9 -34 8 -27 -1 -34 -5 -33 -19z"/>
<path d="M8310 5400 c0 -12 27 -12 55 0 16 7 13 9 -17 9 -21 1 -38 -3 -38 -9z"/>
<path d="M3490 5365 c0 -8 2 -15 4 -15 2 0 6 7 10 15 3 8 1 15 -4 15 -6 0 -10
-7 -10 -15z"/>
<path d="M4735 5360 c3 -5 10 -10 16 -10 5 0 9 5 9 10 0 6 -7 10 -16 10 -8 0
-12 -4 -9 -10z"/>
<path d="M4302 5340 c0 -14 2 -19 5 -12 2 6 2 18 0 25 -3 6 -5 1 -5 -13z"/>
<path d="M4290 5285 c1 -26 2 -28 11 -12 8 14 8 22 0 30 -8 8 -11 3 -11 -18z"/>
<path d="M4675 5290 c-11 -5 -14 -9 -7 -9 6 -1 12 -7 12 -15 0 -8 12 -19 28
-24 24 -9 24 -11 5 -11 -12 -1 -25 4 -28 9 -4 6 -18 2 -36 -11 -16 -11 -27
-25 -24 -30 4 -5 0 -9 -8 -9 -8 0 -20 -7 -27 -15 -14 -16 0 -21 16 -5 5 5 25
10 45 11 20 2 49 13 64 24 23 19 26 27 20 58 -7 38 -20 44 -60 27z"/>
<path d="M7865 5270 c-3 -5 1 -10 9 -10 9 0 16 5 16 10 0 6 -4 10 -9 10 -6 0
-13 -4 -16 -10z"/>
<path d="M3618 5263 c7 -3 16 -2 19 1 4 3 -2 6 -13 5 -11 0 -14 -3 -6 -6z"/>
<path d="M4181 5256 c-9 -11 -6 -15 14 -18 27 -6 41 5 30 22 -9 14 -31 12 -44
-4z"/>
<path d="M4620 5258 c-14 -6 -20 -12 -13 -15 7 -2 23 3 35 11 25 18 15 20 -22
4z"/>
<path d="M7115 5230 c-3 -5 1 -10 10 -10 9 0 13 5 10 10 -3 6 -8 10 -10 10 -2
0 -7 -4 -10 -10z"/>
<path d="M4202 5198 c7 -12 20 -31 28 -42 8 -10 14 -20 13 -22 -8 -12 -1 -23
10 -18 8 3 18 -5 25 -18 9 -19 11 -20 11 -5 1 11 -11 32 -26 48 -16 16 -30 39
-33 51 -3 13 -14 24 -24 26 -15 3 -16 1 -4 -20z"/>
<path d="M7455 5200 c3 -5 8 -10 11 -10 2 0 4 5 4 10 0 6 -5 10 -11 10 -5 0
-7 -4 -4 -10z"/>
<path d="M300 5160 c13 -8 -4 -24 -37 -34 -26 -8 -29 -21 -9 -42 9 -9 17 -10
21 -4 9 14 42 12 48 -2 5 -15 47 27 47 46 0 6 -5 4 -10 -4 -8 -12 -10 -10 -10
9 0 16 -4 21 -15 17 -8 -3 -15 -1 -15 4 0 5 8 10 18 13 9 2 2 4 -16 4 -18 0
-28 -3 -22 -7z"/>
<path d="M7540 5150 c0 -5 7 -7 15 -4 8 4 15 8 15 10 0 2 -7 4 -15 4 -8 0 -15
-4 -15 -10z"/>
<path d="M4662 5134 c4 -21 22 -23 26 -1 2 10 -3 17 -13 17 -10 0 -15 -6 -13
-16z"/>
<path d="M3847 5090 c3 -11 7 -20 9 -20 2 0 4 9 4 20 0 11 -4 20 -9 20 -5 0
-7 -9 -4 -20z"/>
<path d="M7460 5080 c0 -5 9 -10 20 -10 11 0 20 5 20 10 0 6 -9 10 -20 10 -11
0 -20 -4 -20 -10z"/>
<path d="M4360 5056 c0 -9 5 -16 10 -16 6 0 10 4 10 9 0 6 -4 13 -10 16 -5 3
-10 -1 -10 -9z"/>
<path d="M6961 5033 c10 -11 10 -14 2 -9 -7 4 -13 3 -13 -2 0 -13 43 -23 53
-13 10 10 -19 41 -40 41 -13 0 -14 -2 -2 -17z"/>
<path d="M7441 5041 c-7 -5 -9 -11 -4 -14 4 -3 17 1 28 9 21 16 0 20 -24 5z"/>
<path d="M7130 5031 c0 -5 -6 -9 -12 -8 -35 1 -58 -4 -58 -13 0 -14 52 -12 73
4 19 15 22 26 7 26 -5 0 -10 -4 -10 -9z"/>
<path d="M3917 5012 c-21 -23 -22 -33 -3 -26 8 3 16 14 19 25 6 24 4 24 -16 1z"/>
<path d="M160 4994 c0 -8 6 -11 15 -8 8 4 15 9 15 13 0 4 -7 8 -15 8 -8 0 -15
-6 -15 -13z"/>
<path d="M3792 4967 c-9 -11 -10 -17 -2 -22 15 -9 23 -1 18 21 -3 15 -4 16
-16 1z"/>
<path d="M7048 4973 c7 -3 16 -2 19 1 4 3 -2 6 -13 5 -11 0 -14 -3 -6 -6z"/>
<path d="M3880 4950 c0 -5 5 -10 11 -10 5 0 7 5 4 10 -3 6 -8 10 -11 10 -2 0
-4 -4 -4 -10z"/>
<path d="M3720 4940 c0 -5 5 -10 10 -10 6 0 10 5 10 10 0 6 -4 10 -10 10 -5 0
-10 -4 -10 -10z"/>
<path d="M7290 4940 c-8 -5 -11 -12 -7 -16 4 -4 15 0 24 9 18 18 8 23 -17 7z"/>
<path d="M3830 4925 c7 -9 15 -13 17 -11 7 7 -7 26 -19 26 -6 0 -6 -6 2 -15z"/>
<path d="M167 4923 c-4 -3 -7 -11 -7 -17 0 -6 5 -5 12 2 6 6 9 14 7 17 -3 3
-9 2 -12 -2z"/>
<path d="M4287 4923 c-11 -11 -8 -20 7 -20 8 0 12 6 9 14 -6 15 -7 15 -16 6z"/>
<path d="M4656 4921 c-4 -7 -5 -15 -2 -18 9 -9 19 4 14 18 -4 11 -6 11 -12 0z"/>
<path d="M3872 4893 c-19 -29 -34 -63 -28 -63 3 0 16 20 29 45 29 51 28 59 -1
18z"/>
<path d="M6786 4911 c-4 -5 -2 -12 3 -15 5 -4 12 -2 15 3 4 5 2 12 -3 15 -5 4
-12 2 -15 -3z"/>
<path d="M3758 4903 c-6 -11 -3 -61 4 -69 4 -3 11 3 16 13 9 18 -11 74 -20 56z"/>
<path d="M7020 4889 c0 -5 5 -7 10 -4 6 3 10 8 10 11 0 2 -4 4 -10 4 -5 0 -10
-5 -10 -11z"/>
<path d="M4385 4881 c-3 -5 -1 -12 4 -15 5 -3 11 1 15 9 6 16 -9 21 -19 6z"/>
<path d="M4637 4873 c-12 -12 -7 -22 8 -17 8 4 15 10 15 15 0 11 -14 12 -23 2z"/>
<path d="M6830 4870 c-9 -6 -10 -10 -3 -10 6 0 15 5 18 10 8 12 4 12 -15 0z"/>
<path d="M6880 4869 c-13 -8 -13 -11 3 -23 10 -8 27 -12 38 -9 11 3 18 6 17 7
-2 1 -12 9 -23 18 -14 12 -25 14 -35 7z"/>
<path d="M3710 4845 c-17 -21 -8 -28 15 -11 11 8 14 15 8 19 -6 4 -16 0 -23
-8z"/>
<path d="M7200 4850 c0 -5 7 -10 15 -10 8 0 15 5 15 10 0 6 -7 10 -15 10 -8 0
-15 -4 -15 -10z"/>
<path d="M60 4841 c0 -6 5 -13 10 -16 6 -3 10 1 10 9 0 9 -4 16 -10 16 -5 0
-10 -4 -10 -9z"/>
<path d="M4624 4825 c-8 -20 4 -51 15 -39 5 5 12 19 16 32 5 16 2 22 -10 22
-8 0 -18 -7 -21 -15z"/>
<path d="M4601 4774 c0 -11 3 -14 6 -6 3 7 2 16 -1 19 -3 4 -6 -2 -5 -13z"/>
<path d="M4790 4766 c0 -9 5 -16 10 -16 6 0 10 4 10 9 0 6 -4 13 -10 16 -5 3
-10 -1 -10 -9z"/>
<path d="M7100 4770 c-13 -9 -13 -10 0 -10 8 0 22 5 30 10 13 9 13 10 0 10 -8
0 -22 -5 -30 -10z"/>
<path d="M1062 4740 c-12 -16 -22 -34 -22 -40 0 -5 -9 -10 -20 -10 -11 0 -20
-7 -20 -15 0 -8 -9 -19 -20 -25 -15 -8 -20 -21 -20 -53 1 -41 21 -83 33 -70 4
3 7 -12 7 -35 0 -35 3 -42 20 -42 13 0 20 7 20 20 0 17 7 20 40 20 25 0 47 7
58 18 10 9 35 26 55 37 53 28 61 40 58 93 -1 34 -8 52 -27 68 -13 13 -24 28
-24 34 0 7 -17 10 -44 9 -24 -2 -51 2 -58 9 -12 9 -19 6 -36 -18z"/>
<path d="M9410 4751 c0 -9 24 -21 43 -21 6 0 2 7 -9 15 -22 17 -34 19 -34 6z"/>
<path d="M4750 4720 c0 -5 5 -10 10 -10 6 0 10 5 10 10 0 6 -4 10 -10 10 -5 0
-10 -4 -10 -10z"/>
<path d="M4767 4692 c-34 -38 -12 -36 38 2 20 15 20 15 -1 16 -11 0 -28 -8
-37 -18z"/>
<path d="M80 4678 c0 -4 16 -8 35 -8 19 0 35 4 35 8 0 4 -16 8 -35 8 -19 0
-35 -4 -35 -8z"/>
<path d="M4876 4655 c-14 -11 -19 -26 -18 -55 1 -27 -2 -40 -11 -40 -7 0 -21
-13 -30 -30 -10 -17 -13 -30 -8 -30 6 0 11 -5 11 -11 0 -5 -3 -8 -7 -6 -5 3
-17 -7 -28 -22 -18 -25 -18 -25 0 -11 17 13 18 13 13 -1 -6 -16 18 -78 35 -90
4 -3 9 -18 11 -33 3 -28 20 -46 44 -46 8 0 12 15 12 43 0 24 4 47 9 53 14 16
24 67 10 59 -6 -4 -15 -2 -20 6 -6 10 -10 7 -18 -13 -5 -14 -15 -29 -21 -33
-5 -3 -7 -11 -4 -17 4 -7 2 -8 -4 -4 -7 4 -9 18 -6 32 4 14 1 32 -7 42 -11 14
-11 15 1 5 8 -7 17 -13 22 -13 4 0 5 6 3 13 -3 6 13 31 35 54 23 23 36 44 30
48 -5 3 -14 4 -19 1 -11 -7 -21 18 -20 47 1 19 2 18 13 -7 12 -27 13 -27 19
-7 4 17 -17 82 -26 81 -1 0 -11 -7 -21 -15z m4 -126 c0 -5 -4 -9 -10 -9 -5 0
-10 7 -10 16 0 8 5 12 10 9 6 -3 10 -10 10 -16z"/>
<path d="M4938 4652 c-22 -4 -23 -18 -3 -26 9 -3 18 1 22 10 7 18 3 21 -19 16z"/>
<path d="M4740 4616 c0 -4 9 -16 20 -28 11 -12 20 -17 20 -11 0 5 -9 18 -20
28 -11 10 -20 15 -20 11z"/>
<path d="M4730 4525 c0 -19 2 -35 5 -35 10 0 24 40 19 54 -11 28 -24 17 -24
-19z"/>
<path d="M813 4523 c9 -2 23 -2 30 0 6 3 -1 5 -18 5 -16 0 -22 -2 -12 -5z"/>
<path d="M9798 4483 c7 -3 16 -2 19 1 4 3 -2 6 -13 5 -11 0 -14 -3 -6 -6z"/>
<path d="M9838 4473 c7 -3 16 -2 19 1 4 3 -2 6 -13 5 -11 0 -14 -3 -6 -6z"/>
<path d="M9590 4440 c0 -5 5 -10 11 -10 5 0 7 5 4 10 -3 6 -8 10 -11 10 -2 0
-4 -4 -4 -10z"/>
<path d="M9695 4420 c-3 -5 -1 -10 4 -10 6 0 11 5 11 10 0 6 -2 10 -4 10 -3 0
-8 -4 -11 -10z"/>
<path d="M4690 4410 c20 -13 33 -13 25 0 -3 6 -14 10 -23 10 -15 0 -15 -2 -2
-10z"/>
<path d="M9630 4377 c-24 -12 -41 -60 -19 -54 5 1 20 -16 33 -37 28 -49 66
-65 101 -42 21 14 23 20 15 36 -5 10 -10 27 -10 38 0 24 -37 59 -70 66 -14 2
-36 -1 -50 -7z m40 -48 c0 -6 -4 -7 -10 -4 -5 3 -10 11 -10 16 0 6 5 7 10 4 6
-3 10 -11 10 -16z"/>
<path d="M9720 4376 c0 -3 13 -12 30 -21 26 -13 29 -14 24 0 -4 8 -10 15 -14
15 -5 0 -15 3 -24 6 -9 3 -16 4 -16 0z"/>
<path d="M3515 4344 c-25 -20 -26 -24 -10 -21 23 3 72 47 53 47 -7 -1 -26 -12
-43 -26z"/>
<path d="M4870 4250 c6 -11 16 -17 25 -14 9 4 16 -3 21 -23 14 -59 44 -72 44
-18 0 24 -5 35 -15 35 -8 0 -15 4 -15 9 0 5 -14 14 -31 20 -41 14 -41 14 -29
-9z"/>
<path d="M4937 4106 c-3 -8 1 -17 9 -20 10 -4 12 -2 8 6 -5 7 -3 8 5 3 7 -4
11 -15 8 -25 -3 -13 0 -17 9 -13 19 7 18 28 -2 47 -19 20 -30 20 -37 2z"/>
<path d="M9870 4086 c0 -2 8 -10 18 -17 15 -13 16 -12 3 4 -13 16 -21 21 -21
13z"/>
<path d="M9892 4025 c21 -22 39 -37 42 -34 2 2 -14 19 -37 38 l-42 34 37 -38z"/>
<path d="M6737 4019 c-8 -29 -1 -38 23 -32 25 7 25 15 1 37 -17 16 -19 16 -24
-5z"/>
<path d="M9920 4036 c0 -2 7 -9 15 -16 9 -7 15 -8 15 -2 0 5 -7 12 -15 16 -8
3 -15 4 -15 2z"/>
<path d="M6935 4000 c-3 -5 -1 -10 4 -10 6 0 11 5 11 10 0 6 -2 10 -4 10 -3 0
-8 -4 -11 -10z"/>
<path d="M6877 3985 c6 -18 34 -16 41 3 2 7 -6 12 -22 12 -19 0 -24 -4 -19
-15z"/>
<path d="M9989 3967 c19 -20 32 -39 30 -42 -3 -3 -16 6 -29 20 -13 14 -27 25
-32 25 -5 0 6 -16 24 -35 23 -27 34 -32 41 -23 7 10 10 10 14 1 2 -7 9 -13 15
-13 12 0 -58 81 -81 94 -9 5 -1 -8 18 -27z"/>
<path d="M6761 3971 c-8 -5 -11 -16 -8 -25 10 -25 27 -19 25 9 -1 14 -3 25 -3
25 0 0 -6 -4 -14 -9z"/>
<path d="M6904 3926 c23 -18 36 -20 36 -6 0 6 -4 10 -9 10 -5 0 -18 3 -28 6
-16 5 -16 4 1 -10z"/>
<path d="M9913 3867 c4 -10 7 -25 7 -33 0 -8 6 -14 14 -14 26 0 26 17 -1 41
-21 19 -25 21 -20 6z"/>
<path d="M3445 3800 c3 -5 11 -10 16 -10 6 0 7 5 4 10 -3 6 -11 10 -16 10 -6
0 -7 -4 -4 -10z"/>
<path d="M6920 3741 c0 -6 5 -13 10 -16 6 -3 7 -17 4 -31 -5 -18 -2 -24 11
-24 12 0 15 6 11 20 -3 11 -9 29 -12 40 -5 20 -24 28 -24 11z"/>
<path d="M9750 3646 c0 -8 4 -17 9 -20 5 -4 7 3 4 14 -6 23 -13 26 -13 6z"/>
<path d="M9510 3580 c0 -5 5 -10 11 -10 5 0 7 5 4 10 -3 6 -8 10 -11 10 -2 0
-4 -4 -4 -10z"/>
<path d="M7041 3324 c0 -11 3 -14 6 -6 3 7 2 16 -1 19 -3 4 -6 -2 -5 -13z"/>
<path d="M9082 3269 c2 -7 10 -15 17 -17 8 -3 12 1 9 9 -2 7 -10 15 -17 17 -8
3 -12 -1 -9 -9z"/>
<path d="M7070 3170 c0 -5 5 -10 10 -10 6 0 10 5 10 10 0 6 -4 10 -10 10 -5 0
-10 -4 -10 -10z"/>
<path d="M8440 3050 c0 -5 5 -10 10 -10 6 0 10 5 10 10 0 6 -4 10 -10 10 -5 0
-10 -4 -10 -10z"/>
<path d="M8900 2826 c0 -7 -9 -25 -21 -40 -28 -36 -38 -130 -15 -139 21 -8 71
16 80 38 10 27 7 102 -6 130 -12 26 -38 34 -38 11z"/>
<path d="M8520 2580 c0 -8 5 -22 10 -30 9 -13 10 -13 10 0 0 8 -5 22 -10 30
-9 13 -10 13 -10 0z"/>
<path d="M7698 2273 c7 -3 16 -2 19 1 4 3 -2 6 -13 5 -11 0 -14 -3 -6 -6z"/>
<path d="M6420 823 c0 -13 29 -38 35 -31 3 3 -4 13 -15 23 -11 10 -20 13 -20
8z"/>
<path d="M7963 653 c-4 -10 2 -23 15 -34 22 -17 30 -49 13 -49 -4 0 -20 9 -34
20 -32 26 -63 25 -77 -1 -15 -27 -9 -65 10 -60 8 1 63 4 122 5 59 1 111 5 115
10 4 4 -2 15 -15 25 -13 9 -36 28 -52 43 -16 14 -38 29 -49 33 -12 3 -21 11
-21 16 0 15 -20 10 -27 -8z"/>
<path d="M7600 590 c0 -11 7 -20 15 -20 8 0 15 9 15 20 0 11 -7 20 -15 20 -8
0 -15 -9 -15 -20z"/>
<path d="M8162 440 c-107 -19 -158 -34 -86 -24 36 5 42 3 47 -17 5 -17 10 -20
29 -14 13 4 38 9 56 12 32 5 41 17 22 26 -6 3 -5 4 2 3 22 -5 14 -30 -12 -37
-25 -7 -25 -7 3 -8 24 -1 27 -4 22 -21 -10 -32 17 -24 54 14 22 22 45 36 65
38 63 6 22 32 -69 43 -16 2 -76 -4 -133 -15z"/>
</g>
</svg>
